<svg xmlns="http://www.w3.org/2000/svg" xmlns:xlink="http://www.w3.org/1999/xlink" width="86.348" height="71.888" viewBox="0 0 86.348 71.888">
  <defs>
    <linearGradient id="linear-gradient" x1="0.5" y1="1" x2="0.5" gradientUnits="objectBoundingBox">
      <stop offset="0.039" stop-color="#43c1c7"/>
      <stop offset="0.211" stop-color="#4ec2c2"/>
      <stop offset="0.463" stop-color="#65c5b5"/>
      <stop offset="0.765" stop-color="#82ca9f"/>
      <stop offset="1" stop-color="#99cf8b"/>
    </linearGradient>
    <linearGradient id="linear-gradient-2" x1="0.5" x2="0.5" y2="1" gradientUnits="objectBoundingBox">
      <stop offset="0" stop-color="#97cd8c"/>
      <stop offset="1" stop-color="#44c1c6"/>
    </linearGradient>
  </defs>
  <g id="booking" transform="translate(-203.652 -30)">
    <path id="logo_bg_mark" data-name="logo bg mark" d="M3042.713-2240.649a77.226,77.226,0,0,1-13.07-10.391,88.134,88.134,0,0,1-18.009-24.3,71.938,71.938,0,0,1-5.23-14.226c-1.034-4.216-2.594-10.745.067-14.658,1.9-2.792,5.6-3.914,8.667-4.669,7.254-1.765,14.933-1.923,22.362-2.035,3.553-.05,7.107-.113,10.674-.052,3.555-.061,7.128,0,10.68.052,7.426.113,15.105.27,22.358,2.035,3.077.756,6.771,1.878,8.651,4.669,2.681,3.912,1.115,10.441.063,14.658a72.165,72.165,0,0,1-5.21,14.226,88.182,88.182,0,0,1-18.009,24.3,77.5,77.5,0,0,1-13.076,10.391,10.427,10.427,0,0,1-5.458,1.537A10.442,10.442,0,0,1,3042.713-2240.649Z" transform="translate(-2801.347 2341)" opacity="0.4" fill="url(#linear-gradient)"/>
    <g id="booking-2" data-name="booking" transform="translate(223.999 38.797)">
      <path id="Path_39418" data-name="Path 39418" d="M41.566,8.848A3.044,3.044,0,0,0,38.523,5.8h-.761V8.087A1.522,1.522,0,0,1,36.24,9.609H34.718A1.522,1.522,0,0,0,36.24,8.087V3.522a1.522,1.522,0,0,0-3.044,0V5.8h-3.8V8.087A1.522,1.522,0,0,1,27.87,9.609H26.349A1.522,1.522,0,0,0,27.87,8.087V3.522a1.522,1.522,0,0,0-3.044,0V5.8H20.261V8.087A1.522,1.522,0,0,1,18.74,9.609H17.218A1.522,1.522,0,0,0,18.74,8.087V3.522a1.522,1.522,0,0,0-3.044,0V5.8h-3.8V8.087A1.522,1.522,0,0,1,10.37,9.609H8.848A1.522,1.522,0,0,0,10.37,8.087V3.522a1.522,1.522,0,1,0-3.044,0V5.8H5.044A3.044,3.044,0,0,0,2,8.848v4.565H41.566Z" transform="translate(-2 -2)" fill="#231e1f"/>
      <path id="Path_39419" data-name="Path 39419" d="M48.37,40a8.37,8.37,0,1,0,8.37,8.37A8.37,8.37,0,0,0,48.37,40Zm0,9.892a1.512,1.512,0,0,1-.551-.107l-2.778,2.223-.951-1.189,2.781-2.224a1.453,1.453,0,0,1,.738-1.536V42.283h1.522v4.776a1.517,1.517,0,0,1-.761,2.833Z" transform="translate(-11.086 -11.086)" stroke="#fff" stroke-width="0.5" fill="url(#linear-gradient-2)"/>
      <path id="Path_39420" data-name="Path 39420" d="M5.044,47.153H30.153a9.893,9.893,0,0,1,5.326-12.935h-3.8V29.653H36.24v4.287a9.741,9.741,0,0,1,5.326-.207V19H2V44.109a3.043,3.043,0,0,0,3.044,3.044Zm26.631-25.87H36.24v4.565H31.675Zm-8.37,0H27.87v4.565H23.305Zm0,8.37H27.87v4.565H23.305Zm0,8.37H27.87v4.565H23.305Zm-8.37-16.74H19.5v4.565H14.935Zm0,8.37H19.5v4.565H14.935Zm0,8.37H19.5v4.565H14.935Zm-8.37-16.74h4.565v4.565H6.565Zm0,8.37h4.565v4.565H6.565Zm0,8.37h4.565v4.565H6.565Z" transform="translate(-2 -6.065)" fill="#231e1f"/>
    </g>
  </g>
</svg>
