<svg xmlns="http://www.w3.org/2000/svg" xmlns:xlink="http://www.w3.org/1999/xlink" width="95.823" height="79.777" viewBox="0 0 95.823 79.777">
  <defs>
    <linearGradient id="linear-gradient" x1="0.5" y1="1" x2="0.5" gradientUnits="objectBoundingBox">
      <stop offset="0.039" stop-color="#43c1c7"/>
      <stop offset="0.211" stop-color="#4ec2c2"/>
      <stop offset="0.463" stop-color="#65c5b5"/>
      <stop offset="0.765" stop-color="#82ca9f"/>
      <stop offset="1" stop-color="#99cf8b"/>
    </linearGradient>
  </defs>
  <g id="call" transform="translate(0 0)">
    <path id="Union_11" data-name="Union 11" d="M41.853,78.071a85.7,85.7,0,0,1-14.5-11.531A97.806,97.806,0,0,1,7.363,39.578a79.832,79.832,0,0,1-5.8-15.787C.412,19.112-1.32,11.867,1.633,7.525c2.1-3.1,6.209-4.343,9.618-5.182C19.3.385,27.822.209,36.067.085,40.01.03,43.954-.04,47.912.028c3.945-.068,7.91,0,11.852.057,8.241.126,16.763.3,24.811,2.258,3.415.839,7.515,2.084,9.6,5.182,2.975,4.342,1.237,11.587.07,16.266a80.084,80.084,0,0,1-5.782,15.787A97.858,97.858,0,0,1,68.479,66.54,86,86,0,0,1,53.969,78.071a11.609,11.609,0,0,1-12.116,0Z" transform="translate(0)" opacity="0.4" fill="url(#linear-gradient)"/>
    <g id="call2" transform="translate(28.147 13.833)">
      <g id="Group_45711" data-name="Group 45711">
        <path id="Path_39450" data-name="Path 39450" d="M31.654,54.056a4.978,4.978,0,0,0-4.408,2.637,1.649,1.649,0,0,0,2.722,1.862c.726-1.061,1.054-1.228,1.5-1.207,1.427.168,7.048,4.287,7.611,5.575a1.706,1.706,0,0,1-.016,1.2,5.691,5.691,0,0,1-2.826,3.559A5.291,5.291,0,0,1,32,67.543a46.605,46.605,0,0,1-15.288-9.954l-.005-.005A46.6,46.6,0,0,1,6.771,42.316a5.293,5.293,0,0,1-.143-4.24,5.689,5.689,0,0,1,3.558-2.825,1.7,1.7,0,0,1,1.2-.017c1.293.565,5.412,6.186,5.578,7.6.024.463-.144.791-1.2,1.515a1.649,1.649,0,1,0,1.86,2.723,4.974,4.974,0,0,0,2.638-4.413c-.143-2.635-5.268-9.611-7.716-10.512a4.986,4.986,0,0,0-3.406-.02A8.875,8.875,0,0,0,3.63,36.7a8.488,8.488,0,0,0,.087,6.858A49.878,49.878,0,0,0,14.379,59.921l.034.033A49.891,49.891,0,0,0,30.756,70.6a9.784,9.784,0,0,0,3.682.768,7.559,7.559,0,0,0,3.175-.681,8.875,8.875,0,0,0,4.577-5.506,4.987,4.987,0,0,0-.017-3.4C41.269,59.324,34.292,54.2,31.654,54.056Z" transform="translate(-2.949 -31.836)" fill="#231e1f"/>
      </g>
    </g>
  </g>
</svg>
