<svg xmlns="http://www.w3.org/2000/svg" xmlns:xlink="http://www.w3.org/1999/xlink" width="86.348" height="71.888" viewBox="0 0 86.348 71.888">
  <defs>
    <linearGradient id="linear-gradient" x1="0.5" y1="1" x2="0.5" gradientUnits="objectBoundingBox">
      <stop offset="0.039" stop-color="#43c1c7"/>
      <stop offset="0.211" stop-color="#4ec2c2"/>
      <stop offset="0.463" stop-color="#65c5b5"/>
      <stop offset="0.765" stop-color="#82ca9f"/>
      <stop offset="1" stop-color="#99cf8b"/>
    </linearGradient>
    <linearGradient id="linear-gradient-2" x1="0.5" x2="0.5" y2="1" gradientUnits="objectBoundingBox">
      <stop offset="0" stop-color="#97cd8c"/>
      <stop offset="1" stop-color="#44c1c6"/>
    </linearGradient>
  </defs>
  <g id="championship" transform="translate(-231.652 -34.03)">
    <path id="Union_10" data-name="Union 10" d="M3042.713-2240.649a77.226,77.226,0,0,1-13.07-10.391,88.134,88.134,0,0,1-18.009-24.3,71.938,71.938,0,0,1-5.23-14.226c-1.034-4.216-2.594-10.745.067-14.658,1.9-2.792,5.6-3.914,8.667-4.669,7.254-1.765,14.933-1.923,22.362-2.035,3.553-.05,7.107-.113,10.674-.052,3.555-.061,7.128,0,10.68.052,7.426.113,15.105.27,22.358,2.035,3.077.756,6.771,1.878,8.651,4.669,2.681,3.912,1.115,10.441.063,14.658a72.165,72.165,0,0,1-5.21,14.226,88.182,88.182,0,0,1-18.009,24.3,77.5,77.5,0,0,1-13.076,10.391,10.427,10.427,0,0,1-5.458,1.537A10.442,10.442,0,0,1,3042.713-2240.649Z" transform="translate(-2773.348 2345.029)" opacity="0.4" fill="url(#linear-gradient)"/>
    <g id="championship-2" data-name="championship" transform="translate(257.063 41.116)">
      <g id="Group_45679" data-name="Group 45679" transform="translate(-10.668)">
        <path id="Path_39421" data-name="Path 39421" d="M69.4,154.179a15.37,15.37,0,1,0,15.37-15.37A15.388,15.388,0,0,0,69.4,154.179Zm19.175-10.637,1.455,2.874,3.14.51a4.31,4.31,0,0,1,2.369,7.276l-2.264,2.3.5,3.216a4.3,4.3,0,0,1-1.715,4.14l-.008.006a4.289,4.289,0,0,1-4.478.348l-2.826-1.449-2.827,1.449a4.308,4.308,0,0,1-1.955.472,4.3,4.3,0,0,1-4.246-4.965l.5-3.217-2.264-2.3a4.31,4.31,0,0,1,2.372-7.276l3.137-.509,1.456-2.876a4.292,4.292,0,0,1,7.661,0Z" transform="translate(-56.34 -111.835)" fill="#231e1f"/>
        <path id="Path_39422" data-name="Path 39422" d="M109,166.5l-2.11,4.167-4.569.741a1.45,1.45,0,0,0-1.145.987,1.465,1.465,0,0,0,.348,1.477l3.268,3.32-.715,4.631a1.462,1.462,0,0,0,.58,1.4,1.438,1.438,0,0,0,1.5.119l4.126-2.116,4.126,2.116a1.439,1.439,0,0,0,1.5-.118,1.461,1.461,0,0,0,.58-1.4l-.715-4.631,3.268-3.32a1.465,1.465,0,0,0,.348-1.477,1.449,1.449,0,0,0-1.145-.987l-4.569-.741-2.11-4.167a1.441,1.441,0,0,0-2.576,0Z" transform="translate(-81.884 -133.503)" stroke="#fff" stroke-width="0.5" fill="url(#linear-gradient-2)"/>
        <path id="Path_39423" data-name="Path 39423" d="M19.932,23.513,28.88,10.485,22.21.875A2.035,2.035,0,0,0,20.538,0H4.218A2.036,2.036,0,0,0,2.546,3.2L16.752,23.664a2.035,2.035,0,0,0,.769,3.92h2.424a18.179,18.179,0,0,1,21.341,0H43.71a2.035,2.035,0,0,0,.769-3.92L58.685,3.2A2.036,2.036,0,0,0,57.013,0H40.692A2.035,2.035,0,0,0,39.02.875L23.307,23.513Z" transform="translate(-2.182)" fill="#231e1f"/>
      </g>
    </g>
  </g>
</svg>
