<svg xmlns="http://www.w3.org/2000/svg" xmlns:xlink="http://www.w3.org/1999/xlink" width="95.711" height="79.683" viewBox="0 0 95.711 79.683">
  <defs>
    <linearGradient id="linear-gradient" x1="0.5" y1="1" x2="0.5" gradientUnits="objectBoundingBox">
      <stop offset="0.039" stop-color="#43c1c7"/>
      <stop offset="0.211" stop-color="#4ec2c2"/>
      <stop offset="0.463" stop-color="#65c5b5"/>
      <stop offset="0.765" stop-color="#82ca9f"/>
      <stop offset="1" stop-color="#99cf8b"/>
    </linearGradient>
  </defs>
  <g id="email" transform="translate(0 0)">
    <path id="Union_11" data-name="Union 11" d="M41.8,77.979A85.6,85.6,0,0,1,27.316,66.462,97.691,97.691,0,0,1,7.354,39.532a79.738,79.738,0,0,1-5.8-15.769C.411,19.09-1.319,11.853,1.631,7.516c2.1-3.094,6.2-4.338,9.606-5.175C19.278.385,27.79.209,36.025.085,39.963.03,43.9-.04,47.856.028c3.94-.068,7.9,0,11.838.057,8.232.126,16.743.3,24.782,2.255,3.411.838,7.506,2.081,9.589,5.175,2.972,4.337,1.236,11.574.07,16.247a79.99,79.99,0,0,1-5.775,15.769A97.744,97.744,0,0,1,68.4,66.462,85.9,85.9,0,0,1,53.905,77.979a11.6,11.6,0,0,1-12.1,0Z" transform="translate(0)" opacity="0.4" fill="url(#linear-gradient)"/>
    <g id="email3" transform="translate(24.383 17.724)">
      <path id="Path_39447" data-name="Path 39447" d="M47.044,7.874a4.913,4.913,0,0,0-3.128-1.123H7.03a4.984,4.984,0,0,0-2.97.992A5.052,5.052,0,0,0,2,11.781V32.735a5.035,5.035,0,0,0,5.03,5.03H43.916a5.035,5.035,0,0,0,5.03-5.03V11.781A5,5,0,0,0,47.044,7.874ZM41.613,10.1l-13.33,8.977a5.01,5.01,0,0,1-5.619,0L9.333,10.1Zm3.979,22.631a1.668,1.668,0,0,1-1.1,1.56l-8.767-8.767A1.677,1.677,0,1,0,33.355,27.9l6.513,6.513H11.077L17.491,28a1.677,1.677,0,1,0-2.371-2.371L6.452,34.3a1.668,1.668,0,0,1-1.1-1.56V11.781a1.579,1.579,0,0,1,.056-.276L20.79,21.864a8.35,8.35,0,0,0,9.366,0L45.536,11.505a1.578,1.578,0,0,1,.056.276Z" transform="translate(-2 -6.751)" fill="#231e1f" stroke="#fff" stroke-width="0.4"/>
    </g>
  </g>
</svg>
