<svg xmlns="http://www.w3.org/2000/svg" xmlns:xlink="http://www.w3.org/1999/xlink" width="64.481" height="53.683" viewBox="0 0 64.481 53.683">
  <defs>
    <linearGradient id="linear-gradient" x1="0.5" y1="1" x2="0.5" gradientUnits="objectBoundingBox">
      <stop offset="0.039" stop-color="#43c1c7"/>
      <stop offset="0.211" stop-color="#4ec2c2"/>
      <stop offset="0.463" stop-color="#65c5b5"/>
      <stop offset="0.765" stop-color="#82ca9f"/>
      <stop offset="1" stop-color="#99cf8b"/>
    </linearGradient>
  </defs>
  <g id="fb" transform="translate(-1127.229 -1554)">
    <g id="Group_45731" data-name="Group 45731" transform="translate(1127.229 1554)">
      <path id="Union_11" data-name="Union 11" d="M28.163,52.535a57.669,57.669,0,0,1-9.76-7.759A65.815,65.815,0,0,1,4.954,26.633,53.72,53.72,0,0,1,1.049,16.009C.277,12.861-.888,7.985,1.1,5.064,2.514,2.979,5.277,2.141,7.571,1.577,12.988.259,18.722.141,24.27.057,26.923.02,29.577-.027,32.241.019c2.655-.046,5.323,0,7.975.038,5.546.085,11.28.2,16.7,1.519,2.3.564,5.057,1.4,6.461,3.487,2,2.922.833,7.8.047,10.946a53.89,53.89,0,0,1-3.891,10.623A65.851,65.851,0,0,1,46.081,44.776a57.874,57.874,0,0,1-9.765,7.759,7.812,7.812,0,0,1-8.153,0Z" transform="translate(0 0)" opacity="0.4" fill="url(#linear-gradient)"/>
    </g>
    <path id="Icon_feather-facebook" data-name="Icon feather-facebook" d="M25.333,3H21.288a6.742,6.742,0,0,0-6.742,6.742v4.045H10.5v5.394h4.045V29.97h5.394V19.182h4.045l1.348-5.394H19.939V9.742a1.348,1.348,0,0,1,1.348-1.348h4.045Z" transform="translate(1141.553 1563.28)" fill="none" stroke="#231e1f" stroke-linecap="round" stroke-linejoin="round" stroke-width="2"/>
  </g>
</svg>
