<svg xmlns="http://www.w3.org/2000/svg" xmlns:xlink="http://www.w3.org/1999/xlink" width="64.481" height="53.683" viewBox="0 0 64.481 53.683">
  <defs>
    <linearGradient id="linear-gradient" x1="0.5" y1="1" x2="0.5" gradientUnits="objectBoundingBox">
      <stop offset="0.039" stop-color="#43c1c7"/>
      <stop offset="0.211" stop-color="#4ec2c2"/>
      <stop offset="0.463" stop-color="#65c5b5"/>
      <stop offset="0.765" stop-color="#82ca9f"/>
      <stop offset="1" stop-color="#99cf8b"/>
    </linearGradient>
  </defs>
  <g id="insta" transform="translate(-1127.229 -1554)">
    <g id="Group_45731" data-name="Group 45731" transform="translate(1127.229 1554)">
      <path id="Union_11" data-name="Union 11" d="M28.163,52.535a57.669,57.669,0,0,1-9.76-7.759A65.815,65.815,0,0,1,4.954,26.633,53.72,53.72,0,0,1,1.049,16.009C.277,12.861-.888,7.985,1.1,5.064,2.514,2.979,5.277,2.141,7.571,1.577,12.988.259,18.722.141,24.27.057,26.923.02,29.577-.027,32.241.019c2.655-.046,5.323,0,7.975.038,5.546.085,11.28.2,16.7,1.519,2.3.564,5.057,1.4,6.461,3.487,2,2.922.833,7.8.047,10.946a53.89,53.89,0,0,1-3.891,10.623A65.851,65.851,0,0,1,46.081,44.776a57.874,57.874,0,0,1-9.765,7.759,7.812,7.812,0,0,1-8.153,0Z" transform="translate(0 0)" opacity="0.4" fill="url(#linear-gradient)"/>
    </g>
    <g id="Icon_ionic-logo-instagram" data-name="Icon ionic-logo-instagram" transform="translate(1141.5 1559.5)">
      <path id="Path_39439" data-name="Path 39439" d="M23.625,6.75a5.642,5.642,0,0,1,5.625,5.625v11.25a5.642,5.642,0,0,1-5.625,5.625H12.375A5.642,5.642,0,0,1,6.75,23.625V12.375A5.642,5.642,0,0,1,12.375,6.75h11.25m0-2.25H12.375A7.9,7.9,0,0,0,4.5,12.375v11.25A7.9,7.9,0,0,0,12.375,31.5h11.25A7.9,7.9,0,0,0,31.5,23.625V12.375A7.9,7.9,0,0,0,23.625,4.5Z" fill="#231e1f"/>
      <path id="Path_39440" data-name="Path 39440" d="M25.313,12.375A1.688,1.688,0,1,1,27,10.688,1.683,1.683,0,0,1,25.313,12.375Z" fill="#231e1f"/>
      <path id="Path_39441" data-name="Path 39441" d="M18,13.5A4.5,4.5,0,1,1,13.5,18,4.5,4.5,0,0,1,18,13.5m0-2.25A6.75,6.75,0,1,0,24.75,18,6.752,6.752,0,0,0,18,11.25Z" fill="#231e1f"/>
    </g>
  </g>
</svg>
