<svg xmlns="http://www.w3.org/2000/svg" xmlns:xlink="http://www.w3.org/1999/xlink" width="95.513" height="79.518" viewBox="0 0 95.513 79.518">
  <defs>
    <linearGradient id="linear-gradient" x1="0.5" y1="1" x2="0.5" gradientUnits="objectBoundingBox">
      <stop offset="0.039" stop-color="#43c1c7"/>
      <stop offset="0.211" stop-color="#4ec2c2"/>
      <stop offset="0.463" stop-color="#65c5b5"/>
      <stop offset="0.765" stop-color="#82ca9f"/>
      <stop offset="1" stop-color="#99cf8b"/>
    </linearGradient>
  </defs>
  <g id="location" transform="translate(0 0)">
    <path id="Union_11" data-name="Union 11" d="M41.717,77.818A85.423,85.423,0,0,1,27.259,66.324,97.489,97.489,0,0,1,7.339,39.45,79.573,79.573,0,0,1,1.554,23.714C.41,19.05-1.316,11.828,1.628,7.5c2.1-3.088,6.189-4.329,9.586-5.165C19.238.384,27.732.208,35.95.085,39.88.029,43.812-.04,47.757.028c3.932-.068,7.884,0,11.814.057C67.785.21,76.279.384,84.3,2.336c3.4.836,7.49,2.077,9.57,5.165,2.966,4.328,1.233,11.55.07,16.213A79.824,79.824,0,0,1,88.178,39.45,97.542,97.542,0,0,1,68.257,66.324,85.726,85.726,0,0,1,53.794,77.818a11.571,11.571,0,0,1-12.077,0Z" transform="translate(0)" opacity="0.4" fill="url(#linear-gradient)"/>
    <g id="location-2" data-name="location" transform="translate(26.932 12.168)">
      <path id="Path_39474" data-name="Path 39474" d="M19.568,34.825a1.477,1.477,0,0,1-1.045-.432C18.049,33.919,6.94,22.685,6.94,12.524a12.642,12.642,0,0,1,25.27,0c0,5.938-3.805,12.238-6.969,16.475a1.491,1.491,0,1,1-2.383-1.784c2.913-3.875,6.4-9.576,6.4-14.691a9.666,9.666,0,0,0-19.333,0c0,8.948,10.607,19.653,10.719,19.765a1.491,1.491,0,0,1-1.073,2.537Z" transform="translate(1.256 -0.301)" fill="#231e1f"/>
      <path id="Path_39475" data-name="Path 39475" d="M19.568,34.825a1.477,1.477,0,0,1-1.045-.432C18.049,33.919,6.94,22.685,6.94,12.524a12.642,12.642,0,0,1,25.27,0c0,5.938-3.805,12.238-6.969,16.475a1.491,1.491,0,1,1-2.383-1.784c2.913-3.875,6.4-9.576,6.4-14.691a9.666,9.666,0,0,0-19.333,0c0,8.948,10.607,19.653,10.719,19.765a1.491,1.491,0,0,1-1.073,2.537Z" transform="translate(1.256 -0.301)" fill="#231e1f"/>
      <path id="Path_39476" data-name="Path 39476" d="M17.26,14.251a4.46,4.46,0,1,1,4.46-4.46A4.46,4.46,0,0,1,17.26,14.251Zm0-5.952A1.491,1.491,0,1,0,18.752,9.79,1.491,1.491,0,0,0,17.26,8.3Z" transform="translate(3.564 1.679)" fill="#231e1f"/>
      <path id="Path_39477" data-name="Path 39477" d="M21.884,37.7C9.813,37.7,1.06,33.012,1.06,26.544c0-4.084,2.439-7.081,7.248-8.893A1.491,1.491,0,1,1,9.367,20.44c-4.781,1.8-5.339,4.348-5.339,6.1,0,4.014,6.7,8.182,17.855,8.182s17.841-4.182,17.841-8.182c0-1.756-.544-4.307-5.311-6.119a1.491,1.491,0,1,1,1.059-2.788c4.795,1.826,7.234,4.809,7.234,8.893C42.694,33.012,33.941,37.7,21.884,37.7Z" transform="translate(-1.06 6.488)" fill="#231e1f"/>
    </g>
  </g>
</svg>
