<svg xmlns="http://www.w3.org/2000/svg" xmlns:xlink="http://www.w3.org/1999/xlink" width="69.13" height="57.553" viewBox="0 0 69.13 57.553">
  <defs>
    <linearGradient id="linear-gradient" x1="0.5" y1="1" x2="0.5" gradientUnits="objectBoundingBox">
      <stop offset="0.039" stop-color="#43c1c7"/>
      <stop offset="0.211" stop-color="#4ec2c2"/>
      <stop offset="0.463" stop-color="#65c5b5"/>
      <stop offset="0.765" stop-color="#82ca9f"/>
      <stop offset="1" stop-color="#99cf8b"/>
    </linearGradient>
  </defs>
  <g id="person" transform="translate(0 0)">
    <path id="Union_11" data-name="Union 11" d="M30.194,56.322A61.827,61.827,0,0,1,19.73,48,70.56,70.56,0,0,1,5.312,28.553,57.593,57.593,0,0,1,1.125,17.164C.3,13.788-.952,8.561,1.178,5.429,2.7,3.194,5.658,2.3,8.117,1.691,13.924.278,20.072.151,26.02.062c2.844-.04,5.69-.09,8.546-.041,2.846-.049,5.706,0,8.55.041,5.945.091,12.093.216,17.9,1.629,2.464.6,5.421,1.5,6.926,3.738,2.147,3.132.893,8.359.051,11.735a57.775,57.775,0,0,1-4.171,11.389A70.6,70.6,0,0,1,49.4,48a62.046,62.046,0,0,1-10.469,8.319,8.375,8.375,0,0,1-8.741,0Z" transform="translate(0)" opacity="0.4" fill="url(#linear-gradient)"/>
    <g id="person-2" data-name="person" transform="translate(21.921 9.5)">
      <path id="Path_39497" data-name="Path 39497" d="M94.332,14.6a7.064,7.064,0,0,0,5.162-2.139A7.065,7.065,0,0,0,101.633,7.3a7.065,7.065,0,0,0-2.139-5.162,7.3,7.3,0,0,0-10.324,0A7.064,7.064,0,0,0,87.032,7.3a7.064,7.064,0,0,0,2.139,5.162A7.066,7.066,0,0,0,94.332,14.6ZM90.427,3.395a5.522,5.522,0,0,1,7.812,0A5.278,5.278,0,0,1,99.857,7.3a5.278,5.278,0,0,1-1.619,3.906,5.522,5.522,0,0,1-7.812,0A5.277,5.277,0,0,1,88.808,7.3a5.277,5.277,0,0,1,1.619-3.906Zm0,0" transform="translate(-81.88)" fill="#231e1f"/>
      <path id="Path_39498" data-name="Path 39498" d="M25.227,255.983a18.031,18.031,0,0,0-.246-1.915,15.09,15.09,0,0,0-.471-1.926,9.513,9.513,0,0,0-.792-1.8,6.771,6.771,0,0,0-1.194-1.556,5.263,5.263,0,0,0-1.715-1.077,5.926,5.926,0,0,0-2.189-.4,2.222,2.222,0,0,0-1.187.5c-.356.232-.772.5-1.236.8a7.083,7.083,0,0,1-1.6.7,6.21,6.21,0,0,1-3.912,0,7.061,7.061,0,0,1-1.6-.7c-.46-.294-.876-.562-1.237-.8a2.219,2.219,0,0,0-1.186-.5,5.919,5.919,0,0,0-2.189.4,5.259,5.259,0,0,0-1.715,1.077,6.771,6.771,0,0,0-1.193,1.555,9.53,9.53,0,0,0-.792,1.8,15.126,15.126,0,0,0-.471,1.925,17.909,17.909,0,0,0-.246,1.916c-.04.579-.061,1.181-.061,1.79a5.033,5.033,0,0,0,1.495,3.808,5.381,5.381,0,0,0,3.852,1.4H19.942a5.381,5.381,0,0,0,3.852-1.4,5.031,5.031,0,0,0,1.5-3.808c0-.611-.021-1.213-.061-1.79Zm-2.658,4.311a3.623,3.623,0,0,1-2.627.916H5.347a3.623,3.623,0,0,1-2.627-.915,3.287,3.287,0,0,1-.943-2.521c0-.568.019-1.129.056-1.667a16.153,16.153,0,0,1,.222-1.725,13.34,13.34,0,0,1,.414-1.7,7.758,7.758,0,0,1,.644-1.46,5.018,5.018,0,0,1,.877-1.15,3.492,3.492,0,0,1,1.141-.709,4.088,4.088,0,0,1,1.4-.27c.062.033.173.1.352.213.365.238.786.509,1.251.807a8.8,8.8,0,0,0,2.008.9,7.985,7.985,0,0,0,5.005,0,8.81,8.81,0,0,0,2.009-.9c.476-.3.885-.568,1.25-.806.179-.117.29-.18.352-.213a4.091,4.091,0,0,1,1.4.27,3.5,3.5,0,0,1,1.141.709,5.006,5.006,0,0,1,.877,1.15,7.732,7.732,0,0,1,.645,1.46,13.309,13.309,0,0,1,.414,1.7,16.288,16.288,0,0,1,.222,1.725h0c.038.536.057,1.1.057,1.666a3.286,3.286,0,0,1-.944,2.521Zm0,0" transform="translate(0 -232.675)" fill="#231e1f"/>
    </g>
  </g>
</svg>
