<svg xmlns="http://www.w3.org/2000/svg" xmlns:xlink="http://www.w3.org/1999/xlink" width="69.13" height="57.553" viewBox="0 0 69.13 57.553">
  <defs>
    <linearGradient id="linear-gradient" x1="0.5" y1="1" x2="0.5" gradientUnits="objectBoundingBox">
      <stop offset="0.039" stop-color="#43c1c7"/>
      <stop offset="0.211" stop-color="#4ec2c2"/>
      <stop offset="0.463" stop-color="#65c5b5"/>
      <stop offset="0.765" stop-color="#82ca9f"/>
      <stop offset="1" stop-color="#99cf8b"/>
    </linearGradient>
  </defs>
  <g id="player2" transform="translate(0 0)">
    <path id="Union_11" data-name="Union 11" d="M30.194,56.322A61.827,61.827,0,0,1,19.73,48,70.56,70.56,0,0,1,5.312,28.553,57.593,57.593,0,0,1,1.125,17.164C.3,13.788-.952,8.561,1.178,5.429,2.7,3.194,5.658,2.3,8.117,1.691,13.924.278,20.072.151,26.02.062c2.844-.04,5.69-.09,8.546-.041,2.846-.049,5.706,0,8.55.041,5.945.091,12.093.216,17.9,1.629,2.464.6,5.421,1.5,6.926,3.738,2.147,3.132.893,8.359.051,11.735a57.775,57.775,0,0,1-4.171,11.389A70.6,70.6,0,0,1,49.4,48a62.046,62.046,0,0,1-10.469,8.319,8.375,8.375,0,0,1-8.741,0Z" transform="translate(0)" opacity="0.4" fill="url(#linear-gradient)"/>
    <g id="player2-2" data-name="player2" transform="translate(10.398 5.886)">
      <path id="Path_39429" data-name="Path 39429" d="M27.365,31.639a4.556,4.556,0,1,1,4.556,4.556,4.556,4.556,0,0,1-4.556-4.556Zm-9.8,4.5-.948-2.065,1.5-.7.878,1.9A3.035,3.035,0,0,0,17.566,36.141ZM5.213,17.036A4.882,4.882,0,0,1,9.95,13c6.746,0,10.134,11.266,4.292,13.962C9.558,29.123,3.777,22.841,5.213,17.036Zm7.875,11.952a6.055,6.055,0,0,0,3.443-1.6,13.405,13.405,0,0,0,.915,4.482l-1.549.715a13.383,13.383,0,0,0-2.809-3.6Zm30.844-1.905a1.671,1.671,0,0,1-.231.849l-4.674,7.952a.764.764,0,0,0-.031.093.678.678,0,0,0-.069.326.955.955,0,0,0-.008.1l1.5,12.956a.828.828,0,0,1-.823.923h-5.91a.828.828,0,0,1-.823-.732c-.778-6.687-.888-7.543-.888-7.634a.837.837,0,0,0-1.465-.442L25.331,47.8a1.657,1.657,0,0,1-2.759-.311L18.43,39.2a1.657,1.657,0,1,1,2.96-1.483l2.428,4.854a.828.828,0,0,0,1.382.155l4.375-5.338a6.213,6.213,0,0,0,8.517-6.468l2.415-4.1a.828.828,0,0,0,.113-.421V17.236a1.722,1.722,0,0,1,1.376-1.727,1.657,1.657,0,0,1,1.938,1.634Z" transform="translate(-4.99 -13)" fill="none" stroke="#231e1f" stroke-width="2"/>
    </g>
  </g>
</svg>
