<svg xmlns="http://www.w3.org/2000/svg" xmlns:xlink="http://www.w3.org/1999/xlink" width="95.513" height="79.518" viewBox="0 0 95.513 79.518">
  <defs>
    <linearGradient id="linear-gradient" x1="0.5" y1="1" x2="0.5" gradientUnits="objectBoundingBox">
      <stop offset="0.039" stop-color="#43c1c7"/>
      <stop offset="0.211" stop-color="#4ec2c2"/>
      <stop offset="0.463" stop-color="#65c5b5"/>
      <stop offset="0.765" stop-color="#82ca9f"/>
      <stop offset="1" stop-color="#99cf8b"/>
    </linearGradient>
  </defs>
  <g id="price" transform="translate(0 0)">
    <path id="Union_11" data-name="Union 11" d="M41.717,77.818A85.423,85.423,0,0,1,27.259,66.324,97.489,97.489,0,0,1,7.339,39.45,79.573,79.573,0,0,1,1.554,23.714C.41,19.05-1.316,11.828,1.628,7.5c2.1-3.088,6.189-4.329,9.586-5.165C19.238.384,27.732.208,35.95.085,39.88.029,43.812-.04,47.757.028c3.932-.068,7.884,0,11.814.057C67.785.21,76.279.384,84.3,2.336c3.4.836,7.49,2.077,9.57,5.165,2.966,4.328,1.233,11.55.07,16.213A79.824,79.824,0,0,1,88.178,39.45,97.542,97.542,0,0,1,68.257,66.324,85.726,85.726,0,0,1,53.794,77.818a11.571,11.571,0,0,1-12.077,0Z" transform="translate(0)" opacity="0.4" fill="url(#linear-gradient)"/>
    <g id="Icon_ionic-ios-pricetags" data-name="Icon ionic-ios-pricetags" transform="translate(24.813 15.752)">
      <path id="Path_39492" data-name="Path 39492" d="M34.783,2.25H24.426a1.214,1.214,0,0,0-.859.359L2.96,23.3a2.433,2.433,0,0,0,0,3.435l9.769,9.857a2.608,2.608,0,0,0,3.8.184L36.851,16.418a1.214,1.214,0,0,0,.359-.859V4.677A2.427,2.427,0,0,0,34.783,2.25Zm-4.022,9.419a2.7,2.7,0,1,1,2.392-2.392A2.7,2.7,0,0,1,30.761,11.669Z" transform="translate(0)" fill="none" stroke="#231e1f" stroke-width="2"/>
      <path id="Path_39493" data-name="Path 39493" d="M36.619,5.646v9.962a1.214,1.214,0,0,1-.359.859L13.549,39.178l.771.771a2.433,2.433,0,0,0,3.435,0l20.608-20.7a1.214,1.214,0,0,0,.359-.859V8.047A2.429,2.429,0,0,0,36.619,5.646Z" transform="translate(2.781 0.836)" fill="#231e1f"/>
    </g>
  </g>
</svg>
