<svg xmlns="http://www.w3.org/2000/svg" xmlns:xlink="http://www.w3.org/1999/xlink" width="69.13" height="57.553" viewBox="0 0 69.13 57.553">
  <defs>
    <linearGradient id="linear-gradient" x1="0.5" y1="1" x2="0.5" gradientUnits="objectBoundingBox">
      <stop offset="0.039" stop-color="#43c1c7"/>
      <stop offset="0.211" stop-color="#4ec2c2"/>
      <stop offset="0.463" stop-color="#65c5b5"/>
      <stop offset="0.765" stop-color="#82ca9f"/>
      <stop offset="1" stop-color="#99cf8b"/>
    </linearGradient>
  </defs>
  <g id="sex" transform="translate(0 0)">
    <path id="Union_11" data-name="Union 11" d="M30.194,56.322A61.827,61.827,0,0,1,19.73,48,70.56,70.56,0,0,1,5.312,28.553,57.593,57.593,0,0,1,1.125,17.164C.3,13.788-.952,8.561,1.178,5.429,2.7,3.194,5.658,2.3,8.117,1.691,13.924.278,20.072.151,26.02.062c2.844-.04,5.69-.09,8.546-.041,2.846-.049,5.706,0,8.55.041,5.945.091,12.093.216,17.9,1.629,2.464.6,5.421,1.5,6.926,3.738,2.147,3.132.893,8.359.051,11.735a57.775,57.775,0,0,1-4.171,11.389A70.6,70.6,0,0,1,49.4,48a62.046,62.046,0,0,1-10.469,8.319,8.375,8.375,0,0,1-8.741,0Z" transform="translate(0)" opacity="0.4" fill="url(#linear-gradient)"/>
    <g id="sex-2" data-name="sex" transform="translate(19.627 11.526)">
      <g id="Group_46003" data-name="Group 46003">
        <path id="Path_39495" data-name="Path 39495" d="M7,105.666v3.648H4.376a.875.875,0,0,0,0,1.751H7v2.684a.875.875,0,1,0,1.751,0v-2.684h2.626a.875.875,0,0,0,0-1.751H8.753V105.67a8.388,8.388,0,0,0,1.728-.392,9.712,9.712,0,0,1-1.367-1.4A6.127,6.127,0,1,1,7.877,91.751,6.209,6.209,0,0,1,14,97.877a6.047,6.047,0,0,1-.709,2.8,4.375,4.375,0,0,0,1.386,1.1,7.784,7.784,0,0,0,1.073-3.9A7.877,7.877,0,1,0,0,97.877,7.86,7.86,0,0,0,7,105.666Z" transform="translate(0 -84.748)"/>
        <path id="Path_39496" data-name="Path 39496" d="M170.248,0H165a.875.875,0,1,0,0,1.751h3.139L162.767,7a7.583,7.583,0,0,0-7.493-1.273,9.711,9.711,0,0,1,1.367,1.4,6.127,6.127,0,1,1,1.237,12.128,6.2,6.2,0,0,1-6.127-6.127,6.048,6.048,0,0,1,.709-2.8,4.375,4.375,0,0,0-1.386-1.1,7.784,7.784,0,0,0-1.073,3.9,7.976,7.976,0,0,0,7.877,7.877,7.886,7.886,0,0,0,7.877-7.877A7.8,7.8,0,0,0,164,8.239l5.368-5.251V6.127a.875.875,0,0,0,1.751,0V.875A.879.879,0,0,0,170.248,0Z" transform="translate(-141.247)"/>
      </g>
    </g>
  </g>
</svg>
