<svg id="toilet" xmlns="http://www.w3.org/2000/svg" xmlns:xlink="http://www.w3.org/1999/xlink" width="95.513" height="79.518" viewBox="0 0 95.513 79.518">
  <defs>
    <linearGradient id="linear-gradient" x1="0.5" y1="1" x2="0.5" gradientUnits="objectBoundingBox">
      <stop offset="0.039" stop-color="#43c1c7"/>
      <stop offset="0.211" stop-color="#4ec2c2"/>
      <stop offset="0.463" stop-color="#65c5b5"/>
      <stop offset="0.765" stop-color="#82ca9f"/>
      <stop offset="1" stop-color="#99cf8b"/>
    </linearGradient>
  </defs>
  <path id="Union_11" data-name="Union 11" d="M41.717,77.818A85.423,85.423,0,0,1,27.259,66.324,97.489,97.489,0,0,1,7.339,39.45,79.573,79.573,0,0,1,1.554,23.714C.41,19.05-1.316,11.828,1.628,7.5c2.1-3.088,6.189-4.329,9.586-5.165C19.238.384,27.732.208,35.95.085,39.88.029,43.812-.04,47.757.028c3.932-.068,7.884,0,11.814.057C67.785.21,76.279.384,84.3,2.336c3.4.836,7.49,2.077,9.57,5.165,2.966,4.328,1.233,11.55.07,16.213A79.824,79.824,0,0,1,88.178,39.45,97.542,97.542,0,0,1,68.257,66.324,85.726,85.726,0,0,1,53.794,77.818a11.571,11.571,0,0,1-12.077,0Z" transform="translate(0)" opacity="0.4" fill="url(#linear-gradient)"/>
  <g id="wc" transform="translate(24.991 15.486)">
    <g id="Group_46135" data-name="Group 46135" transform="translate(3.412)">
      <g id="Group_46134" data-name="Group 46134">
        <path id="Path_39533" data-name="Path 39533" d="M45.432,15.468a7.062,7.062,0,1,0,7.062,7.062A7.07,7.07,0,0,0,45.432,15.468Z" transform="translate(-38.37 -15.468)" fill="#231e1f"/>
      </g>
    </g>
    <g id="Group_46137" data-name="Group 46137" transform="translate(0 17.439)">
      <g id="Group_46136" data-name="Group 46136">
        <path id="Path_39534" data-name="Path 39534" d="M20.715,212.165a1.361,1.361,0,0,0-1.128-.6H1.36A1.36,1.36,0,0,0,.1,213.435l9.114,22.62a1.36,1.36,0,0,0,2.524,0l9.114-22.621A1.36,1.36,0,0,0,20.715,212.165Z" transform="translate(0.001 -211.566)" fill="#231e1f"/>
      </g>
    </g>
    <g id="Group_46139" data-name="Group 46139" transform="translate(27.995)">
      <g id="Group_46138" data-name="Group 46138">
        <path id="Path_39535" data-name="Path 39535" d="M321.87,15.468a7.062,7.062,0,1,0,7.062,7.062A7.07,7.07,0,0,0,321.87,15.468Z" transform="translate(-314.808 -15.468)" fill="#231e1f"/>
      </g>
    </g>
    <g id="Group_46141" data-name="Group 46141" transform="translate(24.583 17.439)">
      <g id="Group_46140" data-name="Group 46140">
        <path id="Path_39536" data-name="Path 39536" d="M297.287,235.039l-9.114-22.621a1.36,1.36,0,0,0-2.524,0l-9.114,22.621a1.36,1.36,0,0,0,1.262,1.869h18.227a1.36,1.36,0,0,0,1.262-1.869Z" transform="translate(-276.437 -211.566)" fill="#231e1f"/>
      </g>
    </g>
  </g>
</svg>
