<svg xmlns="http://www.w3.org/2000/svg" width="16.797" height="16.797" viewBox="0 0 16.797 16.797">
  <g id="call" transform="translate(-2.949 -3.56)">
    <g id="Group_45711" data-name="Group 45711" transform="translate(2.949 3.56)">
      <path id="Path_39450" data-name="Path 39450" d="M15.146,41.278A2.115,2.115,0,0,0,13.273,42.4a.7.7,0,0,0,1.157.791c.308-.451.448-.522.637-.513A9.026,9.026,0,0,1,18.3,45.046a.725.725,0,0,1-.007.511,2.418,2.418,0,0,1-1.2,1.512,2.248,2.248,0,0,1-1.8-.061,19.8,19.8,0,0,1-6.5-4.23l0,0a19.8,19.8,0,0,1-4.222-6.488,2.249,2.249,0,0,1-.061-1.8,2.417,2.417,0,0,1,1.512-1.2.724.724,0,0,1,.51-.007A9.042,9.042,0,0,1,8.9,36.508c.01.2-.061.336-.512.644a.7.7,0,1,0,.791,1.157A2.114,2.114,0,0,0,10.3,36.434c-.061-1.119-2.238-4.084-3.279-4.467a2.119,2.119,0,0,0-1.447-.008A3.771,3.771,0,0,0,3.238,33.9a3.607,3.607,0,0,0,.037,2.914,21.194,21.194,0,0,0,4.53,6.952l.014.014a21.2,21.2,0,0,0,6.945,4.523,4.157,4.157,0,0,0,1.565.326,3.212,3.212,0,0,0,1.349-.289A3.771,3.771,0,0,0,19.623,46a2.119,2.119,0,0,0-.007-1.444C19.232,43.516,16.267,41.339,15.146,41.278Z" transform="translate(-2.949 -31.836)" fill="#fff"/>
    </g>
  </g>
</svg>
