<svg xmlns="http://www.w3.org/2000/svg" width="39.53" height="39.53" viewBox="0 0 39.53 39.53">
  <g id="call2" transform="translate(0 0)">
    <g id="Group_45711" data-name="Group 45711">
      <path id="Path_39450" data-name="Path 39450" d="M31.654,54.056a4.978,4.978,0,0,0-4.408,2.637,1.649,1.649,0,0,0,2.722,1.862c.726-1.061,1.054-1.228,1.5-1.207,1.427.168,7.048,4.287,7.611,5.575a1.706,1.706,0,0,1-.016,1.2,5.691,5.691,0,0,1-2.826,3.559A5.291,5.291,0,0,1,32,67.543a46.605,46.605,0,0,1-15.288-9.954l-.005-.005A46.6,46.6,0,0,1,6.771,42.316a5.293,5.293,0,0,1-.143-4.24,5.689,5.689,0,0,1,3.558-2.825,1.7,1.7,0,0,1,1.2-.017c1.293.565,5.412,6.186,5.578,7.6.024.463-.144.791-1.2,1.515a1.649,1.649,0,1,0,1.86,2.723,4.974,4.974,0,0,0,2.638-4.413c-.143-2.635-5.268-9.611-7.716-10.512a4.986,4.986,0,0,0-3.406-.02A8.875,8.875,0,0,0,3.63,36.7a8.488,8.488,0,0,0,.087,6.858A49.878,49.878,0,0,0,14.379,59.921l.034.033A49.891,49.891,0,0,0,30.756,70.6a9.784,9.784,0,0,0,3.682.768,7.559,7.559,0,0,0,3.175-.681,8.875,8.875,0,0,0,4.577-5.506,4.987,4.987,0,0,0-.017-3.4C41.269,59.324,34.292,54.2,31.654,54.056Z" transform="translate(-2.949 -31.836)" fill="#231e1f"/>
    </g>
  </g>
</svg>
