<svg xmlns="http://www.w3.org/2000/svg" width="47.345" height="31.414" viewBox="0 0 47.345 31.414">
  <g id="email3" transform="translate(0.2 0.2)">
    <path id="Path_39447" data-name="Path 39447" d="M47.044,7.874a4.913,4.913,0,0,0-3.128-1.123H7.03a4.984,4.984,0,0,0-2.97.992A5.052,5.052,0,0,0,2,11.781V32.735a5.035,5.035,0,0,0,5.03,5.03H43.916a5.035,5.035,0,0,0,5.03-5.03V11.781A5,5,0,0,0,47.044,7.874ZM41.613,10.1l-13.33,8.977a5.01,5.01,0,0,1-5.619,0L9.333,10.1Zm3.979,22.631a1.668,1.668,0,0,1-1.1,1.56l-8.767-8.767A1.677,1.677,0,1,0,33.355,27.9l6.513,6.513H11.077L17.491,28a1.677,1.677,0,1,0-2.371-2.371L6.452,34.3a1.668,1.668,0,0,1-1.1-1.56V11.781a1.579,1.579,0,0,1,.056-.276L20.79,21.864a8.35,8.35,0,0,0,9.366,0L45.536,11.505a1.578,1.578,0,0,1,.056.276Z" transform="translate(-2 -6.751)" fill="#231e1f" stroke="#fff" stroke-width="0.4"/>
  </g>
</svg>
