<svg xmlns="http://www.w3.org/2000/svg" width="21.549" height="14.372" viewBox="0 0 21.549 14.372">
  <g id="email2" transform="translate(-1.8 -6.551)">
    <path id="Path_39447" data-name="Path 39447" d="M22.292,7.257a2.213,2.213,0,0,0-1.409-.506H4.266A2.245,2.245,0,0,0,2.928,7.2,2.276,2.276,0,0,0,2,9.017v9.44a2.268,2.268,0,0,0,2.266,2.266H20.883a2.268,2.268,0,0,0,2.266-2.266V9.017A2.253,2.253,0,0,0,22.292,7.257Zm-2.447,1L13.84,12.306a2.257,2.257,0,0,1-2.531,0L5.3,8.262Zm1.793,10.2a.751.751,0,0,1-.5.7l-3.95-3.95a.755.755,0,1,0-1.068,1.068l2.934,2.934H6.089l2.889-2.889A.755.755,0,1,0,7.91,15.255l-3.9,3.9a.751.751,0,0,1-.5-.7V9.017a.711.711,0,0,1,.025-.124l6.929,4.666a3.761,3.761,0,0,0,4.219,0l6.929-4.666a.711.711,0,0,1,.025.124Z" transform="translate(0 0)" fill="#fff" stroke="#231e1f" stroke-width="0.4"/>
  </g>
</svg>
