<svg xmlns="http://www.w3.org/2000/svg" xmlns:xlink="http://www.w3.org/1999/xlink" width="13.348" height="10.888" viewBox="0 0 13.348 10.888">
  <defs>
    <linearGradient id="linear-gradient" x1="0.5" y1="1" x2="0.5" gradientUnits="objectBoundingBox">
      <stop offset="0.039" stop-color="#43c1c7"/>
      <stop offset="0.211" stop-color="#4ec2c2"/>
      <stop offset="0.463" stop-color="#65c5b5"/>
      <stop offset="0.765" stop-color="#82ca9f"/>
      <stop offset="1" stop-color="#99cf8b"/>
    </linearGradient>
  </defs>
  <path id="footer_list_style_image" data-name="footer list style image" d="M3010.829-2300.345a11.888,11.888,0,0,1-2.021-1.574,13.371,13.371,0,0,1-2.784-3.68,10.763,10.763,0,0,1-.808-2.155,2.98,2.98,0,0,1,.01-2.22,2.205,2.205,0,0,1,1.34-.707,15.985,15.985,0,0,1,3.457-.308c.549-.008,1.1-.017,1.65-.008.55-.009,1.1,0,1.651.008a16,16,0,0,1,3.456.308,2.192,2.192,0,0,1,1.337.707,2.953,2.953,0,0,1,.01,2.22,10.783,10.783,0,0,1-.805,2.155,13.376,13.376,0,0,1-2.784,3.68,11.934,11.934,0,0,1-2.021,1.574,1.636,1.636,0,0,1-.844.233A1.639,1.639,0,0,1,3010.829-2300.345Z" transform="translate(-3004.999 2311)" fill="url(#linear-gradient)"/>
</svg>
