<svg xmlns="http://www.w3.org/2000/svg" width="40.253" height="40.244" viewBox="0 0 40.253 40.244">
  <g id="Icon_ionic-ios-pricetags" data-name="Icon ionic-ios-pricetags" transform="translate(-1.25 -1.25)">
    <path id="Path_39492" data-name="Path 39492" d="M34.783,2.25H24.426a1.214,1.214,0,0,0-.859.359L2.96,23.3a2.433,2.433,0,0,0,0,3.435l9.769,9.857a2.608,2.608,0,0,0,3.8.184L36.851,16.418a1.214,1.214,0,0,0,.359-.859V4.677A2.427,2.427,0,0,0,34.783,2.25Zm-4.022,9.419a2.7,2.7,0,1,1,2.392-2.392A2.7,2.7,0,0,1,30.761,11.669Z" transform="translate(0)" fill="none" stroke="#231e1f" stroke-width="2"/>
    <path id="Path_39493" data-name="Path 39493" d="M36.619,5.646v9.962a1.214,1.214,0,0,1-.359.859L13.549,39.178l.771.771a2.433,2.433,0,0,0,3.435,0l20.608-20.7a1.214,1.214,0,0,0,.359-.859V8.047A2.429,2.429,0,0,0,36.619,5.646Z" transform="translate(2.781 0.836)" fill="#231e1f"/>
  </g>
</svg>
