<svg xmlns="http://www.w3.org/2000/svg" width="25.5" height="16.392" viewBox="0 0 25.5 16.392">
  <g id="Icon_ionic-ios-eye" data-name="Icon ionic-ios-eye" transform="translate(-2.252 -7.875)">
    <path id="Path_32188" data-name="Path 32188" d="M14.988,7.875c-4.576,0-8.184,2.88-12.5,7.587a.9.9,0,0,0-.006,1.212c3.694,4.081,6.949,7.593,12.5,7.593,5.487,0,9.6-4.422,12.527-7.627a.893.893,0,0,0,.028-1.178C24.561,11.848,20.435,7.875,14.988,7.875Zm.25,13.313a5.122,5.122,0,1,1,4.878-4.878A5.124,5.124,0,0,1,15.238,21.188Z" fill="#f5f5f5"/>
    <path id="Path_32189" data-name="Path 32189" d="M18,14.61a2.875,2.875,0,0,1,.218-1.1c-.07,0-.141-.007-.218-.007A4.324,4.324,0,0,0,13.514,18a4.366,4.366,0,0,0,4.141,3.846A4.381,4.381,0,0,0,22.5,17.679c0-.085-.007-.17-.007-.255a3.322,3.322,0,0,1-1.28.255A3.148,3.148,0,0,1,18,14.61Z" transform="translate(-3 -1.608)" fill="#f5f5f5"/>
  </g>
</svg>
