<svg xmlns="http://www.w3.org/2000/svg" width="29.986" height="29.986" viewBox="0 0 29.986 29.986">
  <path id="Icon_awesome-directions" data-name="Icon awesome-directions" d="M29.436,13.664,16.321.55a1.879,1.879,0,0,0-2.657,0L.55,13.664a1.879,1.879,0,0,0,0,2.657L13.664,29.436a1.878,1.878,0,0,0,2.657,0L29.436,16.321a1.879,1.879,0,0,0,0-2.657Zm-5.914.736L18.59,18.952a.469.469,0,0,1-.787-.344V15.461H12.181v3.748a.468.468,0,0,1-.469.469H9.838a.468.468,0,0,1-.469-.469V14.524a1.874,1.874,0,0,1,1.874-1.874H17.8V9.5a.469.469,0,0,1,.787-.344l4.932,4.552a.469.469,0,0,1,0,.689Z" fill="#44c1c6"/>
</svg>
