<svg xmlns="http://www.w3.org/2000/svg" xmlns:xlink="http://www.w3.org/1999/xlink" width="23.5" height="23.5" viewBox="0 0 23.5 23.5">
  <defs>
    <linearGradient id="linear-gradient" x1="0.5" x2="0.5" y2="1" gradientUnits="objectBoundingBox">
      <stop offset="0" stop-color="#97cd8c"/>
      <stop offset="1" stop-color="#44c1c6"/>
    </linearGradient>
  </defs>
  <g id="loc" transform="translate(-0.25 -0.25)">
    <g id="Group_45492" data-name="Group 45492">
      <path id="Path_39277" data-name="Path 39277" d="M12.75,1a.75.75,0,0,0-1.5,0V4.25a10.141,10.141,0,0,0-3.027.281A5.75,5.75,0,0,0,4.531,8.223,10.141,10.141,0,0,0,4.25,11.25H1a.75.75,0,0,0,0,1.5H4.25a10.14,10.14,0,0,0,.281,3.027,5.75,5.75,0,0,0,3.692,3.692,10.144,10.144,0,0,0,3.027.281V23a.75.75,0,1,0,1.5,0V19.75a10.143,10.143,0,0,0,3.027-.281,5.75,5.75,0,0,0,3.692-3.692,10.143,10.143,0,0,0,.281-3.027H23a.75.75,0,0,0,0-1.5H19.75a10.144,10.144,0,0,0-.281-3.027,5.75,5.75,0,0,0-3.692-3.692A10.14,10.14,0,0,0,12.75,4.25ZM8.687,5.958A12.05,12.05,0,0,1,12,5.75a12.049,12.049,0,0,1,3.313.208,4.25,4.25,0,0,1,2.729,2.729A12.052,12.052,0,0,1,18.25,12a12.052,12.052,0,0,1-.208,3.313,4.25,4.25,0,0,1-2.729,2.729A12.052,12.052,0,0,1,12,18.25a12.052,12.052,0,0,1-3.313-.208,4.25,4.25,0,0,1-2.729-2.729A12.049,12.049,0,0,1,5.75,12a12.05,12.05,0,0,1,.208-3.313A4.25,4.25,0,0,1,8.687,5.958Z" fill-rule="evenodd" fill="url(#linear-gradient)"/>
      <path id="Path_39278" data-name="Path 39278" d="M9.5,12A2.5,2.5,0,1,0,12,9.5,2.5,2.5,0,0,0,9.5,12ZM11,12a1,1,0,1,0,1-1A1,1,0,0,0,11,12Z" fill-rule="evenodd" fill="url(#linear-gradient)"/>
    </g>
  </g>
</svg>
