<svg id="money_inactive" data-name="money inactive" xmlns="http://www.w3.org/2000/svg" xmlns:xlink="http://www.w3.org/1999/xlink" width="43.647" height="43.647" viewBox="0 0 43.647 43.647">
  <defs>
    <linearGradient id="linear-gradient" x1="0.5" x2="0.5" y2="1" gradientUnits="objectBoundingBox">
      <stop offset="0" stop-color="#97cd8c"/>
      <stop offset="1" stop-color="#44c1c6"/>
    </linearGradient>
  </defs>
  <g id="Group_45656" data-name="Group 45656">
    <path id="Path_39397" data-name="Path 39397" d="M20.731,284.309l-1.846.379a23.958,23.958,0,0,1-4.98.48c-7.787,0-13.9-3.337-13.9-7.584V270l2.907,1.138c1.188,2.023,5.36,3.919,11,3.919.809,0,1.643-.051,2.4-.126l1.39-.126v1.391a11.549,11.549,0,0,0,1.972,6.548Z" transform="translate(0 -247.247)" fill="url(#linear-gradient)"/>
    <path id="Path_39398" data-name="Path 39398" d="M170.764,334.937l1.062,1.567-1.846.379a23.959,23.959,0,0,1-4.98.48V327.252c.809,0,1.643-.051,2.4-.126l1.39-.127v1.391A11.55,11.55,0,0,0,170.764,334.937Z" transform="translate(-151.095 -299.442)" fill="url(#linear-gradient)"/>
    <path id="Path_39399" data-name="Path 39399" d="M23.057,183.464l-2.6,3.034a11.374,11.374,0,0,0-2.756,7.281v1.163l-1.138.1c-.859.076-1.744.126-2.655.126-7.787,0-13.9-3.337-13.9-7.584V180l3.059,1.365c1.365,1.921,5.41,3.691,10.846,3.691a21.81,21.81,0,0,0,5.284-.607Z" transform="translate(0 -164.831)" fill="url(#linear-gradient)"/>
    <path id="Path_39400" data-name="Path 39400" d="M170.284,222.086l3.868-.986-2.6,3.034a11.374,11.374,0,0,0-2.756,7.281v1.163l-1.138.1c-.859.076-1.744.126-2.655.126V222.693A21.811,21.811,0,0,0,170.284,222.086Z" transform="translate(-151.095 -202.468)" fill="url(#linear-gradient)"/>
    <path id="Path_39401" data-name="Path 39401" d="M25.281,90c0,2.4-4.677,5.056-11.377,5.056S2.528,92.4,2.528,90H0v7.584c0,4.247,6.118,7.584,13.9,7.584a24.288,24.288,0,0,0,5.891-.683l.4-.1.253-.3A11.282,11.282,0,0,1,26.8,100.34l1.011-.2V90Z" transform="translate(0 -82.416)" fill="url(#linear-gradient)"/>
    <path id="Path_39402" data-name="Path 39402" d="M178.9,90v10.138l-1.011.2a11.282,11.282,0,0,0-6.345,3.742l-.253.3-.4.1a24.288,24.288,0,0,1-5.891.683V95.056c6.7,0,11.377-2.655,11.377-5.056Z" transform="translate(-151.095 -82.416)" fill="url(#linear-gradient)"/>
    <path id="Path_39403" data-name="Path 39403" d="M13.9,0C6.118,0,0,3.337,0,7.584s6.118,7.584,13.9,7.584,13.9-3.337,13.9-7.584S21.692,0,13.9,0Z" fill="url(#linear-gradient)"/>
    <path id="Path_39404" data-name="Path 39404" d="M178.9,7.584c0,4.247-6.118,7.584-13.9,7.584V0C172.787,0,178.9,3.337,178.9,7.584Z" transform="translate(-151.095)" fill="url(#linear-gradient)"/>
    <path id="Path_39405" data-name="Path 39405" d="M195.9,182a13.445,13.445,0,0,0-2.781.278A13.89,13.89,0,0,0,182,195.9a13.8,13.8,0,0,0,2.427,7.837A13.9,13.9,0,1,0,195.9,182Z" transform="translate(-166.663 -166.663)" stroke="#fff" stroke-width="1" fill="url(#linear-gradient)"/>
    <path id="Path_39406" data-name="Path 39406" d="M360.9,195.9a13.929,13.929,0,0,1-13.9,13.9V182A13.929,13.929,0,0,1,360.9,195.9Z" transform="translate(-317.758 -166.663)" fill="url(#linear-gradient)"/>
    <path id="Path_39407" data-name="Path 39407" d="M309.584,253.377a3.805,3.805,0,0,1-2.528,3.565V259.7h-2.528v-2.756A3.805,3.805,0,0,1,302,253.377h2.528a1.264,1.264,0,1,0,1.264-1.264,3.786,3.786,0,0,1-1.264-7.357V242h2.528v2.756a3.805,3.805,0,0,1,2.528,3.565h-2.528a1.264,1.264,0,1,0-1.264,1.264A3.787,3.787,0,0,1,309.584,253.377Z" transform="translate(-276.55 -221.606)" fill="#fff"/>
    <path id="Path_39408" data-name="Path 39408" d="M350.792,335.792a3.805,3.805,0,0,1-2.528,3.565v2.756H347v-5.056a1.264,1.264,0,0,0,0-2.528V332A3.787,3.787,0,0,1,350.792,335.792Z" transform="translate(-317.758 -304.022)" fill="#fff"/>
    <path id="Path_39409" data-name="Path 39409" d="M347,247.056V242h1.264v2.756a3.805,3.805,0,0,1,2.528,3.565h-2.528A1.252,1.252,0,0,0,347,247.056Z" transform="translate(-317.758 -221.606)" fill="#fff"/>
  </g>
</svg>
