<svg id="my_bookings_inactive" data-name="my bookings inactive" xmlns="http://www.w3.org/2000/svg" width="24.5" height="24.5" viewBox="0 0 24.5 24.5">
  <g id="Group_46065" data-name="Group 46065">
    <g id="Group_46064" data-name="Group 46064">
      <g id="Group_46063" data-name="Group 46063">
        <ellipse id="Ellipse_1547" data-name="Ellipse 1547" cx="1.5" cy="1" rx="1.5" ry="1" transform="translate(17 9)" fill="#fff"/>
        <path id="Path_39511" data-name="Path 39511" d="M20.671,1.914H19.427V.957a.957.957,0,0,0-1.914,0v.957H13.159V.957a.957.957,0,0,0-1.914,0v.957H6.938V.957a.957.957,0,1,0-1.914,0v.957h-1.2A3.832,3.832,0,0,0,0,5.742V20.671A3.832,3.832,0,0,0,3.828,24.5h7.321a.957.957,0,0,0,0-1.914H3.828a1.916,1.916,0,0,1-1.914-1.914V5.742A1.916,1.916,0,0,1,3.828,3.828h1.2v.957a.957.957,0,1,0,1.914,0V3.828h4.307v.957a.957.957,0,1,0,1.914,0V3.828h4.354v.957a.957.957,0,0,0,1.914,0V3.828h1.244a1.916,1.916,0,0,1,1.914,1.914V11.2a.957.957,0,1,0,1.914,0V5.742A3.832,3.832,0,0,0,20.671,1.914Z" fill="#fff"/>
        <path id="Path_39512" data-name="Path 39512" d="M275.79,270a5.79,5.79,0,1,0,5.79,5.79A5.8,5.8,0,0,0,275.79,270Zm0,9.666a3.876,3.876,0,1,1,3.876-3.876A3.88,3.88,0,0,1,275.79,279.666Z" transform="translate(-257.08 -257.08)" fill="#fff"/>
        <path id="Path_39513" data-name="Path 39513" d="M373.345,331.962h-.431v-1a.957.957,0,1,0-1.914,0v1.962a.957.957,0,0,0,.957.957h1.388a.957.957,0,1,0,0-1.914Z" transform="translate(-353.247 -314.209)" fill="#fff"/>
        <circle id="Ellipse_1548" data-name="Ellipse 1548" cx="1" cy="1" r="1" transform="translate(13 9)" fill="#fff"/>
        <circle id="Ellipse_1549" data-name="Ellipse 1549" cx="1" cy="1" r="1" transform="translate(9 13)" fill="#fff"/>
        <circle id="Ellipse_1550" data-name="Ellipse 1550" cx="1" cy="1" r="1" transform="translate(5 9)" fill="#fff"/>
        <circle id="Ellipse_1551" data-name="Ellipse 1551" cx="1" cy="1" r="1" transform="translate(5 13)" fill="#fff"/>
        <ellipse id="Ellipse_1552" data-name="Ellipse 1552" cx="1" cy="1.5" rx="1" ry="1.5" transform="translate(5 17)" fill="#fff"/>
        <ellipse id="Ellipse_1553" data-name="Ellipse 1553" cx="1" cy="1.5" rx="1" ry="1.5" transform="translate(9 17)" fill="#fff"/>
        <circle id="Ellipse_1554" data-name="Ellipse 1554" cx="1" cy="1" r="1" transform="translate(9 9)" fill="#fff"/>
      </g>
    </g>
  </g>
</svg>
