<svg xmlns="http://www.w3.org/2000/svg" width="24.678" height="25.898" viewBox="0 0 24.678 25.898">
  <g id="my_orders_active" data-name="my orders active" transform="translate(-1.502 -1)">
    <g id="Path_39514" data-name="Path 39514" transform="translate(0)" fill="none" fill-rule="evenodd">
      <path d="M9.442,3a.836.836,0,0,1,.825.847v.275l.162-.041a14.574,14.574,0,0,1,6.826,0l.162.041V3.847a.825.825,0,1,1,1.65,0v.892a8.956,8.956,0,0,1,4.722,6.047,15.727,15.727,0,0,1,0,7,8.885,8.885,0,0,1-6.534,6.7,14.575,14.575,0,0,1-6.826,0,8.885,8.885,0,0,1-6.534-6.7,15.727,15.727,0,0,1,0-7A8.956,8.956,0,0,1,8.617,4.739V3.847A.836.836,0,0,1,9.442,3Zm3.217,8.38a.69.69,0,0,0,0-.958.648.648,0,0,0-.933,0L9.992,12.2l-.633-.65a.648.648,0,0,0-.933,0,.69.69,0,0,0,0,.958l1.1,1.129a.648.648,0,0,0,.933,0Zm2.283.537a.677.677,0,0,0,0,1.355h3.85a.677.677,0,0,0,0-1.355Zm-2.283,5.107a.69.69,0,0,0,0-.958.648.648,0,0,0-.933,0L9.992,17.845l-.633-.65a.648.648,0,0,0-.933,0,.69.69,0,0,0,0,.958l1.1,1.129a.648.648,0,0,0,.933,0Zm2.283.537a.677.677,0,0,0,0,1.355h3.85a.677.677,0,0,0,0-1.355Z" stroke="none"/>
      <path d="M 9.441682815551758 3.000001907348633 C 8.986051559448242 3.000001907348633 8.616703033447266 3.379022598266602 8.616703033447266 3.846582412719727 L 8.616703033447266 4.738632202148438 C 6.26466178894043 5.904573440551758 4.506721496582031 8.109003067016602 3.894943237304688 10.78540229797363 C 3.368352890014648 13.08908271789551 3.368352890014648 15.48640251159668 3.894943237304688 17.79004287719727 C 4.65538215637207 21.11689376831055 7.186702728271484 23.71435165405273 10.42862319946289 24.49472236633301 C 12.67354202270508 25.03504180908203 15.0097827911377 25.03504180908203 17.25465202331543 24.49472236633301 C 20.49658203125 23.71435165405273 23.02798271179199 21.11677169799805 23.78840255737305 17.79004287719727 C 24.31497192382812 15.48640251159668 24.31497192382812 13.08908271789551 23.78840255737305 10.78540229797363 C 23.17666244506836 8.109012603759766 21.41870307922363 5.904573440551758 19.06664276123047 4.738632202148438 L 19.06664276123047 3.846582412719727 C 19.06664276123047 3.379022598266602 18.69726181030273 3.000001907348633 18.24161148071289 3.000001907348633 C 17.78597259521484 3.000001907348633 17.41659164428711 3.379022598266602 17.41659164428711 3.846582412719727 L 17.41659164428711 4.121393203735352 C 17.36282348632812 4.107332229614258 17.30892181396484 4.093791961669922 17.25466156005859 4.080753326416016 C 15.00978088378906 3.540395736694336 12.67354202270508 3.540395736694336 10.42862319946289 4.080753326416016 C 10.37444305419922 4.093791961669922 10.32046318054199 4.107353210449219 10.26668167114258 4.121393203735352 L 10.26668167114258 3.846582412719727 C 10.26668167114258 3.379022598266602 9.897333145141602 3.000001907348633 9.441692352294922 3.000001907348633 L 9.441682815551758 3.000001907348633 M 9.991691589355469 13.83620738983154 C 9.822784423828125 13.83620738983154 9.653877258300781 13.77011299133301 9.525001525878906 13.63792324066162 L 8.425012588500977 12.5091028213501 C 8.167263031005859 12.24459266662598 8.167263031005859 11.81572341918945 8.425012588500977 11.55134201049805 C 8.68275260925293 11.28680419921875 9.100641250610352 11.28680419921875 9.358392715454102 11.55134201049805 L 9.991691589355469 12.20116233825684 L 11.72503280639648 10.42251205444336 C 11.98272037506104 10.15802574157715 12.40064144134521 10.15802192687988 12.65833282470703 10.42251205444336 C 12.91614246368408 10.68700218200684 12.91614246368408 11.1158332824707 12.65833282470703 11.38031196594238 L 10.45838165283203 13.63792324066162 C 10.32950782775879 13.77011299133301 10.16060066223145 13.83620738983154 9.991691589355469 13.83620738983154 M 18.79167175292969 13.27182292938232 L 14.94165229797363 13.27182292938232 C 14.5771427154541 13.27182292938232 14.28161239624023 12.96863269805908 14.28161239624023 12.59463310241699 C 14.28161239624023 12.22050285339355 14.5771427154541 11.91731262207031 14.94165229797363 11.91731262207031 L 18.79167175292969 11.91731262207031 C 19.15619277954102 11.91731262207031 19.45159149169922 12.22050285339355 19.45159149169922 12.59463310241699 C 19.45159149169922 12.96863269805908 19.15619277954102 13.27182292938232 18.79167175292969 13.27182292938232 M 9.991691589355469 19.48007774353027 C 9.822784423828125 19.48007774353027 9.653877258300781 19.41398239135742 9.525001525878906 19.28179168701172 L 8.425012588500977 18.15297317504883 C 8.167263031005859 17.88847351074219 8.167263031005859 17.45959281921387 8.425012588500977 17.19521331787109 C 8.68275260925293 16.93071365356445 9.100641250610352 16.93071365356445 9.358392715454102 17.19521331787109 L 9.991691589355469 17.84503173828125 L 11.72503280639648 16.06639289855957 C 11.98272037506104 15.80188274383545 12.40064144134521 15.80188083648682 12.65833282470703 16.06639289855957 C 12.91614246368408 16.33089256286621 12.91614246368408 16.7596435546875 12.65833282470703 17.0241527557373 L 10.45838165283203 19.28179168701172 C 10.32950782775879 19.41398239135742 10.16060066223145 19.48007774353027 9.991691589355469 19.48007774353027 M 18.79167175292969 18.91570281982422 L 14.94165229797363 18.91570281982422 C 14.5771427154541 18.91570281982422 14.28161239624023 18.61250305175781 14.28161239624023 18.23850250244141 C 14.28161239624023 17.86438369750977 14.5771427154541 17.56118392944336 14.94165229797363 17.56118392944336 L 18.79167175292969 17.56118392944336 C 19.15619277954102 17.56118392944336 19.45159149169922 17.86438369750977 19.45159149169922 18.23850250244141 C 19.45159149169922 18.61250305175781 19.15619277954102 18.91570281982422 18.79167175292969 18.91570281982422 M 9.441682815551758 1.000001907348633 C 10.22766876220703 1.000001907348633 10.93964767456055 1.325050354003906 11.4522590637207 1.84882926940918 C 13.03472137451172 1.618349075317383 14.64855480194092 1.618341445922852 16.23102569580078 1.848825454711914 C 16.7436408996582 1.325048446655273 17.45562171936035 1.000001907348633 18.24161148071289 1.000001907348633 C 19.70892524719238 1.000001907348633 20.91855621337891 2.133169174194336 21.05403518676758 3.576547622680664 C 22.03826713562012 4.221063613891602 22.92294883728027 5.030599594116211 23.65309143066406 5.960351943969727 C 24.65342330932617 7.234172821044922 25.37442207336426 8.748542785644531 25.73812294006348 10.33975219726562 C 26.32849311828613 12.92255306243896 26.32849311828613 15.65293312072754 25.73811340332031 18.23571395874023 C 25.28310203552246 20.22632217407227 24.29632186889648 22.04430389404297 22.88444137573242 23.49311256408691 C 21.46551132202148 24.94915199279785 19.68061256408691 25.96789360046387 17.72270202636719 26.43918228149414 C 15.1820707321167 27.05068016052246 12.50124073028564 27.05069541931152 9.960613250732422 26.43919372558594 C 8.002662658691406 25.96789360046387 6.217771530151367 24.94917297363281 4.798871994018555 23.4931526184082 C 3.387022018432617 22.04436302185059 2.400241851806641 20.22637176513672 1.945232391357422 18.23570251464844 C 1.354831695556641 15.6529426574707 1.354831695556641 12.92255306243896 1.945232391357422 10.33972358703613 C 2.590585708618164 7.516426086425781 4.270669937133789 5.109378814697266 6.629568099975586 3.573795318603516 C 6.766218185424805 2.131620407104492 7.975254058837891 1.000001907348633 9.441682815551758 1.000001907348633 Z" stroke="none" fill="#44c1c6"/>
    </g>
  </g>
</svg>
