<svg xmlns="http://www.w3.org/2000/svg" xmlns:xlink="http://www.w3.org/1999/xlink" width="65.941" height="54.091" viewBox="0 0 65.941 54.091">
  <defs>
    <linearGradient id="linear-gradient" x1="0.5" y1="1" x2="0.5" gradientUnits="objectBoundingBox">
      <stop offset="0.039" stop-color="#43c1c7"/>
      <stop offset="0.211" stop-color="#4ec2c2"/>
      <stop offset="0.463" stop-color="#65c5b5"/>
      <stop offset="0.765" stop-color="#82ca9f"/>
      <stop offset="1" stop-color="#99cf8b"/>
    </linearGradient>
  </defs>
  <g id="packages" transform="translate(-1064.059 -316.098)">
    <g id="gift" transform="translate(1086 314.931)">
      <g id="Layer_2" data-name="Layer 2" transform="translate(3 1.167)">
        <path id="Path_39501" data-name="Path 39501" d="M3,18.581V42.629a5.314,5.314,0,0,0,5.33,5.314H38.686A5.314,5.314,0,0,0,44,42.629V18.581a5.33,5.33,0,0,0-5.314-5.33H35.311a9.32,9.32,0,0,0,1.23-1.577,7.648,7.648,0,0,0,.189-7.506,5.961,5.961,0,0,0-5.346-3,8.184,8.184,0,0,0-6.308,2.665A9.588,9.588,0,0,0,23.5,6.076,9.588,9.588,0,0,0,22,3.837a8.184,8.184,0,0,0-6.308-2.665,5.992,5.992,0,0,0-5.362,2.98,7.648,7.648,0,0,0,.189,7.506,9.32,9.32,0,0,0,1.23,1.577H8.33A5.33,5.33,0,0,0,3,18.581ZM21.923,43.212l.095-25.231a1.577,1.577,0,0,1,3.154,0l-.095,25.231a1.577,1.577,0,1,1-3.154,0ZM31.385,4.325a2.823,2.823,0,0,1,2.633,1.4,4.4,4.4,0,0,1-.205,4.352c-.678,1.183-2.46,3.154-6.749,3.154H25.077c0-1.908.363-5.3,2.192-7.3a5.157,5.157,0,0,1,4.116-1.608ZM13.2,10.081A4.4,4.4,0,0,1,13,5.729a2.823,2.823,0,0,1,2.618-1.4A5.157,5.157,0,0,1,19.652,5.9c1.845,2.05,2.176,5.44,2.271,7.348H19.952c-4.337,0-6.071-1.987-6.749-3.17Z" transform="translate(-3 -1.167)" fill="#231e1f"/>
      </g>
    </g>
    <g id="Group_46027" data-name="Group 46027" transform="translate(19 2)">
      <path id="Path_39503" data-name="Path 39503" d="M12.5,0c3.68,0,13.325-2.337,15.834,0,1.782,1.651,0,4.292,0,7,0,.76-2,7.786-2.268,8.8-.744,2.927-4.411,7.325-8.4,9.2-1.644.777-3.126,0-5.166,0C5.6,25-1.133,13.866-1.133,8.067c0-2.72-1.109-6,1.133-8.067C2.064-1.912,8.834,0,12.5,0Z" transform="translate(1052 338)" fill="#fff"/>
      <path id="Path_39502" data-name="Path 39502" d="M304.8,189.619c-.864-1.274-2.561-1.786-3.975-2.131a46.922,46.922,0,0,0-10.272-.929c-1.632-.023-3.274-.052-4.907-.024-1.639-.028-3.272,0-4.9.024a46.888,46.888,0,0,0-10.274.929c-1.411.345-3.111.857-3.982,2.131-1.222,1.786-.506,4.767-.03,6.692a32.694,32.694,0,0,0,2.4,6.495,40.261,40.261,0,0,0,8.274,11.092,35.474,35.474,0,0,0,6.005,4.743,4.831,4.831,0,0,0,5.016,0,35.6,35.6,0,0,0,6.008-4.743,40.282,40.282,0,0,0,8.274-11.092,32.825,32.825,0,0,0,2.394-6.495C305.313,194.386,306.032,191.406,304.8,189.619ZM276.02,207.175a1.6,1.6,0,1,1,1.6-1.6A1.6,1.6,0,0,1,276.02,207.175Zm0-6.314a1.6,1.6,0,1,1,1.6-1.6A1.6,1.6,0,0,1,276.02,200.86Zm0-6.315a1.6,1.6,0,1,1,1.6-1.6A1.6,1.6,0,0,1,276.02,194.545Zm6.418,18.945a1.6,1.6,0,1,1,1.6-1.6A1.6,1.6,0,0,1,282.437,213.49Zm0-6.315a1.6,1.6,0,1,1,1.6-1.6A1.6,1.6,0,0,1,282.437,207.175Zm0-6.314a1.6,1.6,0,1,1,1.6-1.6A1.6,1.6,0,0,1,282.437,200.86Zm0-6.315a1.6,1.6,0,1,1,1.6-1.6A1.6,1.6,0,0,1,282.437,194.545Zm6.419,18.945a1.6,1.6,0,1,1,1.6-1.6A1.6,1.6,0,0,1,288.856,213.49Zm0-6.315a1.6,1.6,0,1,1,1.6-1.6A1.6,1.6,0,0,1,288.856,207.175Zm0-6.314a1.6,1.6,0,1,1,1.6-1.6A1.6,1.6,0,0,1,288.856,200.86Zm0-6.315a1.6,1.6,0,1,1,1.6-1.6A1.6,1.6,0,0,1,288.856,194.545Zm6.418,12.63a1.6,1.6,0,1,1,1.6-1.6A1.6,1.6,0,0,1,295.274,207.175Zm0-6.314a1.6,1.6,0,1,1,1.6-1.6A1.6,1.6,0,0,1,295.274,200.86Zm0-6.315a1.6,1.6,0,1,1,1.6-1.6A1.6,1.6,0,0,1,295.274,194.545Z" transform="translate(780.189 147.771)" stroke="#fff" stroke-width="2" fill="url(#linear-gradient)"/>
    </g>
  </g>
</svg>
