<svg xmlns="http://www.w3.org/2000/svg" width="25.288" height="30.311" viewBox="0 0 25.288 30.311">
  <g id="person" transform="translate(0 0)">
    <path id="Path_39497" data-name="Path 39497" d="M94.332,14.6a7.064,7.064,0,0,0,5.162-2.139A7.065,7.065,0,0,0,101.633,7.3a7.065,7.065,0,0,0-2.139-5.162,7.3,7.3,0,0,0-10.324,0A7.064,7.064,0,0,0,87.032,7.3a7.064,7.064,0,0,0,2.139,5.162A7.066,7.066,0,0,0,94.332,14.6ZM90.427,3.395a5.522,5.522,0,0,1,7.812,0A5.278,5.278,0,0,1,99.857,7.3a5.278,5.278,0,0,1-1.619,3.906,5.522,5.522,0,0,1-7.812,0A5.277,5.277,0,0,1,88.808,7.3a5.277,5.277,0,0,1,1.619-3.906Zm0,0" transform="translate(-81.88)" fill="#231e1f"/>
    <path id="Path_39498" data-name="Path 39498" d="M25.227,255.983a18.031,18.031,0,0,0-.246-1.915,15.09,15.09,0,0,0-.471-1.926,9.513,9.513,0,0,0-.792-1.8,6.771,6.771,0,0,0-1.194-1.556,5.263,5.263,0,0,0-1.715-1.077,5.926,5.926,0,0,0-2.189-.4,2.222,2.222,0,0,0-1.187.5c-.356.232-.772.5-1.236.8a7.083,7.083,0,0,1-1.6.7,6.21,6.21,0,0,1-3.912,0,7.061,7.061,0,0,1-1.6-.7c-.46-.294-.876-.562-1.237-.8a2.219,2.219,0,0,0-1.186-.5,5.919,5.919,0,0,0-2.189.4,5.259,5.259,0,0,0-1.715,1.077,6.771,6.771,0,0,0-1.193,1.555,9.53,9.53,0,0,0-.792,1.8,15.126,15.126,0,0,0-.471,1.925,17.909,17.909,0,0,0-.246,1.916c-.04.579-.061,1.181-.061,1.79a5.033,5.033,0,0,0,1.495,3.808,5.381,5.381,0,0,0,3.852,1.4H19.942a5.381,5.381,0,0,0,3.852-1.4,5.031,5.031,0,0,0,1.5-3.808c0-.611-.021-1.213-.061-1.79Zm-2.658,4.311a3.623,3.623,0,0,1-2.627.916H5.347a3.623,3.623,0,0,1-2.627-.915,3.287,3.287,0,0,1-.943-2.521c0-.568.019-1.129.056-1.667a16.153,16.153,0,0,1,.222-1.725,13.34,13.34,0,0,1,.414-1.7,7.758,7.758,0,0,1,.644-1.46,5.018,5.018,0,0,1,.877-1.15,3.492,3.492,0,0,1,1.141-.709,4.088,4.088,0,0,1,1.4-.27c.062.033.173.1.352.213.365.238.786.509,1.251.807a8.8,8.8,0,0,0,2.008.9,7.985,7.985,0,0,0,5.005,0,8.81,8.81,0,0,0,2.009-.9c.476-.3.885-.568,1.25-.806.179-.117.29-.18.352-.213a4.091,4.091,0,0,1,1.4.27,3.5,3.5,0,0,1,1.141.709,5.006,5.006,0,0,1,.877,1.15,7.732,7.732,0,0,1,.645,1.46,13.309,13.309,0,0,1,.414,1.7,16.288,16.288,0,0,1,.222,1.725h0c.038.536.057,1.1.057,1.666a3.286,3.286,0,0,1-.944,2.521Zm0,0" transform="translate(0 -232.675)" fill="#231e1f"/>
  </g>
</svg>
