<svg xmlns="http://www.w3.org/2000/svg" xmlns:xlink="http://www.w3.org/1999/xlink" width="56.314" height="54.155" viewBox="0 0 56.314 54.155">
  <defs>
    <linearGradient id="linear-gradient" x1="0.5" x2="0.5" y2="1" gradientUnits="objectBoundingBox">
      <stop offset="0" stop-color="#97cd8c"/>
      <stop offset="1" stop-color="#44c1c6"/>
    </linearGradient>
  </defs>
  <g id="player" transform="translate(0 0.25)">
    <path id="Path_39428" data-name="Path 39428" d="M36,6.2a4.2,4.2,0,1,1,4.2,4.2A4.2,4.2,0,0,1,36,6.2Z" transform="translate(1.147 -2)" stroke="#fff" stroke-width="0.5" fill="url(#linear-gradient)"/>
    <path id="Path_39429" data-name="Path 39429" d="M37.345,39.953a6.588,6.588,0,1,1,6.588,6.588,6.588,6.588,0,0,1-6.588-6.588ZM23.177,46.463,21.8,43.477l2.172-1.009,1.27,2.748A4.389,4.389,0,0,0,23.177,46.463ZM5.312,18.836A7.06,7.06,0,0,1,12.163,13c9.756,0,14.654,16.291,6.206,20.189C11.6,36.315,3.236,27.231,5.312,18.836ZM16.7,36.119A8.757,8.757,0,0,0,21.679,33.8,19.385,19.385,0,0,0,23,40.285l-2.24,1.034a19.353,19.353,0,0,0-4.062-5.2Zm44.6-2.755a2.417,2.417,0,0,1-.334,1.227l-6.759,11.5a1.1,1.1,0,0,0-.046.134.98.98,0,0,0-.1.471,1.382,1.382,0,0,0-.012.14l2.171,18.735a1.2,1.2,0,0,1-1.191,1.334H46.486A1.2,1.2,0,0,1,45.3,65.846c-1.125-9.669-1.284-10.908-1.284-11.04a1.211,1.211,0,0,0-2.119-.638L34.4,63.321a2.4,2.4,0,0,1-3.989-.449L24.426,50.886a2.4,2.4,0,1,1,4.28-2.144l3.511,7.02a1.2,1.2,0,0,0,2,.224l6.326-7.719a8.984,8.984,0,0,0,12.316-9.353l3.492-5.922a1.2,1.2,0,0,0,.163-.609V19.125a2.49,2.49,0,0,1,1.99-2.5,2.4,2.4,0,0,1,2.8,2.362Z" transform="translate(-4.99 -13)" fill="#231e1f"/>
  </g>
</svg>
