<svg xmlns="http://www.w3.org/2000/svg" width="40.988" height="39.277" viewBox="0 0 40.988 39.277">
  <g id="player2" transform="translate(1.045 1)">
    <path id="Path_39429" data-name="Path 39429" d="M27.365,31.639a4.556,4.556,0,1,1,4.556,4.556,4.556,4.556,0,0,1-4.556-4.556Zm-9.8,4.5-.948-2.065,1.5-.7.878,1.9A3.035,3.035,0,0,0,17.566,36.141ZM5.213,17.036A4.882,4.882,0,0,1,9.95,13c6.746,0,10.134,11.266,4.292,13.962C9.558,29.123,3.777,22.841,5.213,17.036Zm7.875,11.952a6.055,6.055,0,0,0,3.443-1.6,13.405,13.405,0,0,0,.915,4.482l-1.549.715a13.383,13.383,0,0,0-2.809-3.6Zm30.844-1.905a1.671,1.671,0,0,1-.231.849l-4.674,7.952a.764.764,0,0,0-.031.093.678.678,0,0,0-.069.326.955.955,0,0,0-.008.1l1.5,12.956a.828.828,0,0,1-.823.923h-5.91a.828.828,0,0,1-.823-.732c-.778-6.687-.888-7.543-.888-7.634a.837.837,0,0,0-1.465-.442L25.331,47.8a1.657,1.657,0,0,1-2.759-.311L18.43,39.2a1.657,1.657,0,1,1,2.96-1.483l2.428,4.854a.828.828,0,0,0,1.382.155l4.375-5.338a6.213,6.213,0,0,0,8.517-6.468l2.415-4.1a.828.828,0,0,0,.113-.421V17.236a1.722,1.722,0,0,1,1.376-1.727,1.657,1.657,0,0,1,1.938,1.634Z" transform="translate(-4.99 -13)" fill="none" stroke="#231e1f" stroke-width="2"/>
  </g>
</svg>
