<svg id="sex" xmlns="http://www.w3.org/2000/svg" width="29.876" height="29.876" viewBox="0 0 29.876 29.876">
  <g id="Group_46003" data-name="Group 46003">
    <path id="Path_39495" data-name="Path 39495" d="M7,105.666v3.648H4.376a.875.875,0,0,0,0,1.751H7v2.684a.875.875,0,1,0,1.751,0v-2.684h2.626a.875.875,0,0,0,0-1.751H8.753V105.67a8.388,8.388,0,0,0,1.728-.392,9.712,9.712,0,0,1-1.367-1.4A6.127,6.127,0,1,1,7.877,91.751,6.209,6.209,0,0,1,14,97.877a6.047,6.047,0,0,1-.709,2.8,4.375,4.375,0,0,0,1.386,1.1,7.784,7.784,0,0,0,1.073-3.9A7.877,7.877,0,1,0,0,97.877,7.86,7.86,0,0,0,7,105.666Z" transform="translate(0 -84.748)"/>
    <path id="Path_39496" data-name="Path 39496" d="M170.248,0H165a.875.875,0,1,0,0,1.751h3.139L162.767,7a7.583,7.583,0,0,0-7.493-1.273,9.711,9.711,0,0,1,1.367,1.4,6.127,6.127,0,1,1,1.237,12.128,6.2,6.2,0,0,1-6.127-6.127,6.048,6.048,0,0,1,.709-2.8,4.375,4.375,0,0,0-1.386-1.1,7.784,7.784,0,0,0-1.073,3.9,7.976,7.976,0,0,0,7.877,7.877,7.886,7.886,0,0,0,7.877-7.877A7.8,7.8,0,0,0,164,8.239l5.368-5.251V6.127a.875.875,0,0,0,1.751,0V.875A.879.879,0,0,0,170.248,0Z" transform="translate(-141.247)"/>
  </g>
</svg>
