<svg id="shower" xmlns="http://www.w3.org/2000/svg" width="41.092" height="41.068" viewBox="0 0 41.092 41.068">
  <g id="Group_46129" data-name="Group 46129">
    <path id="Path_39517" data-name="Path 39517" d="M14.746,7a45.522,45.522,0,0,1,4.2-2.442l.023-.013A10.45,10.45,0,0,0,0,10.6V40.812a.4.4,0,0,0,.4.4H4.429a.4.4,0,0,0,.4-.4V10.6A5.605,5.605,0,0,1,14.746,7Z" transform="translate(0 -0.146)" fill="#231e1f"/>
    <path id="Path_39518" data-name="Path 39518" d="M264.029,311.569a1.208,1.208,0,0,0,.993-1.39l-.187-1.119a1.208,1.208,0,1,0-2.383.4l.187,1.119A1.208,1.208,0,0,0,264.029,311.569Z" transform="translate(-241.303 -283.256)" fill="#231e1f"/>
    <path id="Path_39519" data-name="Path 39519" d="M331.792,273.619a1.208,1.208,0,0,0,.462-1.645l-.522-.93a1.208,1.208,0,0,0-2.107,1.182l.522.93A1.208,1.208,0,0,0,331.792,273.619Z" transform="translate(-302.94 -248.662)" fill="#231e1f"/>
    <path id="Path_39520" data-name="Path 39520" d="M399.488,235.548a1.208,1.208,0,0,0-.123-1.7l-.858-.742a1.208,1.208,0,0,0-1.581,1.827l.858.742A1.208,1.208,0,0,0,399.488,235.548Z" transform="translate(-364.58 -214.072)" fill="#231e1f"/>
    <path id="Path_39521" data-name="Path 39521" d="M271.206,397.8a1.208,1.208,0,1,0-2.391.348l.169,1.16a1.208,1.208,0,0,0,2.391-.348Z" transform="translate(-247.157 -364.83)" fill="#231e1f"/>
    <path id="Path_39522" data-name="Path 39522" d="M337.89,360.055a1.208,1.208,0,0,0-2.24.905l.414,1.023a1.208,1.208,0,1,0,2.24-.905Z" transform="translate(-308.541 -330.378)" fill="#231e1f"/>
    <path id="Path_39523" data-name="Path 39523" d="M404.5,322.322a1.208,1.208,0,1,0-1.939,1.44l.658.886a1.208,1.208,0,1,0,1.939-1.44Z" transform="translate(-369.928 -295.93)" fill="#231e1f"/>
    <path id="Path_39524" data-name="Path 39524" d="M471.968,285.393l-.9-.749a1.208,1.208,0,0,0-1.543,1.859l.9.749a1.208,1.208,0,0,0,1.543-1.859Z" transform="translate(-431.313 -261.479)" fill="#231e1f"/>
    <path id="Path_39525" data-name="Path 39525" d="M172.785,82.9l13.449-7.607-.384-.68a5.785,5.785,0,0,0-7.89-2.189c-3.631,2.053-3.688,2.054-4.193,2.468a5.79,5.79,0,0,0-1.367,7.328Z" transform="translate(-157.825 -65.907)" fill="#231e1f"/>
    <path id="Path_39526" data-name="Path 39526" d="M194.181,132.257l-.533-.942a1.218,1.218,0,0,0-1.657-.461l-16.325,9.233a1.218,1.218,0,0,0-.46,1.657l.533.943a1.637,1.637,0,0,0,2.231.619l15.591-8.818A1.637,1.637,0,0,0,194.181,132.257Z" transform="translate(-160.953 -120.185)" fill="#231e1f"/>
  </g>
</svg>
