<svg id="sports_jersey" data-name="sports jersey" xmlns="http://www.w3.org/2000/svg" width="39" height="49.282" viewBox="0 0 39 49.282">
  <path id="Path_39527" data-name="Path 39527" d="M29.2,10.064A5.531,5.531,0,0,0,33.48,8.38a9.223,9.223,0,0,0,1.936-5.616A15.05,15.05,0,0,1,29.2,3.86a15.05,15.05,0,0,1-6.213-1.1A9.225,9.225,0,0,0,24.927,8.38,5.531,5.531,0,0,0,29.2,10.064Z" transform="translate(-9.704 -2.441)"/>
  <path id="Path_39528" data-name="Path 39528" d="M8.886,51.682H46.114A.886.886,0,0,0,47,50.8V23.654a13.063,13.063,0,0,1-8.277-6.708c-1.6-3.059-2.258-8.995-.709-13.714L35.5,2.4c-.042,1.773-.419,4.951-2.411,7.133A7.23,7.23,0,0,1,27.5,11.8a7.23,7.23,0,0,1-5.591-2.266C19.917,7.348,19.54,4.173,19.5,2.4l-2.512.838c1.548,4.718.893,10.653-.709,13.714a13.042,13.042,0,0,1-8.254,6.7L8,50.8A.886.886,0,0,0,8.886,51.682ZM31.932,16.227H33.7A.886.886,0,0,1,33.7,18H31.932a.886.886,0,0,1,0-1.773Zm0,5.318a3.545,3.545,0,0,1,3.545,3.545c0,2.412-1.878,3.5-3.388,4.368a9.325,9.325,0,0,0-1.449.95h3.951a.886.886,0,1,1,0,1.773H29.273a.886.886,0,0,1-.886-.886c0-1.746,1.5-2.609,2.817-3.368,1.556-.9,2.5-1.541,2.5-2.836a1.773,1.773,0,0,0-3.545,0,.886.886,0,1,1-1.773,0A3.545,3.545,0,0,1,31.932,21.545Zm-5.318-5.318h1.773a.886.886,0,0,1,0,1.773H26.614a.886.886,0,0,1,0-1.773Zm-5.318,0h1.773a.886.886,0,0,1,0,1.773H21.3a.886.886,0,0,1,0-1.773Zm1.773,7.091A1.773,1.773,0,0,0,21.3,25.091a.886.886,0,0,1-1.773,0,3.545,3.545,0,0,1,7.091,0c0,2.412-1.878,3.5-3.388,4.368a9.325,9.325,0,0,0-1.449.95h3.951a.886.886,0,1,1,0,1.773H20.409a.886.886,0,0,1-.886-.886c0-1.746,1.5-2.609,2.817-3.368,1.556-.9,2.5-1.541,2.5-2.836A1.773,1.773,0,0,0,23.068,23.318Z" transform="translate(-8 -2.4)"/>
  <path id="Path_39529" data-name="Path 39529" d="M14.706,16.309c1.439-2.748,1.959-8.179.6-12.335l-1.773.59c.8,2.845,2.757,12.36-5.51,15.15v2.249a11.159,11.159,0,0,0,6.681-5.654Z" transform="translate(-8.003 -2.579)"/>
  <path id="Path_39530" data-name="Path 39530" d="M50.962,21.971V19.719c-8.294-2.8-6.332-12.31-5.533-15.157l-1.773-.589c-1.359,4.155-.839,9.591.6,12.335a11.178,11.178,0,0,0,6.707,5.662Z" transform="translate(-11.962 -2.579)"/>
</svg>
