<svg id="trainer" xmlns="http://www.w3.org/2000/svg" xmlns:xlink="http://www.w3.org/1999/xlink" width="58.824" height="66.082" viewBox="0 0 58.824 66.082">
  <defs>
    <linearGradient id="linear-gradient" x1="0.5" x2="0.5" y2="1" gradientUnits="objectBoundingBox">
      <stop offset="0" stop-color="#97cd8c"/>
      <stop offset="1" stop-color="#44c1c6"/>
    </linearGradient>
  </defs>
  <g id="Group_45681" data-name="Group 45681">
    <g id="Group_45680" data-name="Group 45680">
      <path id="Path_39424" data-name="Path 39424" d="M58.924,59.348l-12.146-13.7.039-.026-.146-.094-2.858-3.223a3.888,3.888,0,0,0-.948-.767A22.731,22.731,0,0,1,39.512,29.4a18.648,18.648,0,0,0,.66-5.5,16.233,16.233,0,0,0-.528-3.21,10.066,10.066,0,0,1-2.2.854c.926,5.57-.537,10.871-4.476,14.049C26.4,40.917,15.492,38.318,8.608,29.8S1.466,10.082,8.032,4.771C13.155.628,20.913,1.314,27.353,5.852c.194-.236.379-.479.6-.7a9.1,9.1,0,0,1,.909-.786,33.835,33.835,0,0,0-4.748-2.861,22.946,22.946,0,0,0-7.476-1.5A15.42,15.42,0,0,0,6.6,3.509C-.884,9.777-.673,22.4,7.065,31.639a24.035,24.035,0,0,0,16.136,8.8l0,.094a24.683,24.683,0,0,1,14.214,6.657,3.38,3.38,0,0,0,.353.479L52.872,64.724a4.047,4.047,0,0,0,6.052-5.376ZM38.111,41.963a3.986,3.986,0,0,0-1.337,2.644,26.759,26.759,0,0,0-8.3-4.518,14.609,14.609,0,0,0,9.738-7.411,23.625,23.625,0,0,0,2.518,8.285A4,4,0,0,0,38.111,41.963Z" transform="translate(-1.122 0)" fill="#231e1f"/>
    </g>
  </g>
  <path id="Subtraction_1" data-name="Subtraction 1" d="M18.94,30.458c-4.793,0-9.938-2.627-13.764-7.028A20.368,20.368,0,0,1,.052,11.955C-.273,7.983.936,4.589,3.455,2.4A10.211,10.211,0,0,1,10.278,0a17.687,17.687,0,0,1,10.9,4.256,7.761,7.761,0,0,0-.721,2.612,9.643,9.643,0,0,1,5.6,2.861l.019.019.009.009A18.886,18.886,0,0,1,29.216,19.9a12.215,12.215,0,0,1-.885,4.555,9.574,9.574,0,0,1-2.569,3.6A10.21,10.21,0,0,1,18.94,30.458ZM20.431,7.833h0a7.757,7.757,0,0,0,7.525,7.528,8.808,8.808,0,0,0-2.583-4.941,8.84,8.84,0,0,0-4.942-2.586Z" transform="translate(4.726 5.214)" fill="#231e1f"/>
  <g id="Group_45691" data-name="Group 45691" transform="translate(25.405 4.824)">
    <path id="Path_39430" data-name="Path 39430" d="M18.893,9.089a7.757,7.757,0,0,0-7.528-7.531,8.769,8.769,0,0,0,2.586,4.948A8.747,8.747,0,0,0,18.893,9.089Z" transform="translate(-3.619 -1.339)" stroke="#fff" stroke-width="0.5" fill="url(#linear-gradient)"/>
    <path id="Path_39431" data-name="Path 39431" d="M8.9,4.031a7.757,7.757,0,0,0,7.524,7.528,8.747,8.747,0,0,0-2.583-4.942A8.783,8.783,0,0,0,8.9,4.031Z" transform="translate(-8.895 3.94)" stroke="#fff" stroke-width="0.5" fill="url(#linear-gradient)"/>
    <path id="Path_39432" data-name="Path 39432" d="M8.9,8.575a9.688,9.688,0,0,1,5.6,2.861,9.686,9.686,0,0,1,2.861,5.6,7.768,7.768,0,0,0,7.007-7.007,9.716,9.716,0,0,1-5.6-2.861,9.714,9.714,0,0,1-2.861-5.6A7.768,7.768,0,0,0,8.9,8.575Z" transform="translate(-8.877 -1.568)" stroke="#fff" stroke-width="0.5" fill="url(#linear-gradient)"/>
  </g>
</svg>
