<svg id="water" xmlns="http://www.w3.org/2000/svg" width="23.625" height="54.001" viewBox="0 0 23.625 54.001">
  <g id="Group_46131" data-name="Group 46131" transform="translate(0 10.125)">
    <g id="Group_46130" data-name="Group 46130" transform="translate(0)">
      <path id="Path_39531" data-name="Path 39531" d="M167.625,112.032a5.044,5.044,0,0,0-2.568-4.381,3.34,3.34,0,0,0,2.568-3.213,3.121,3.121,0,0,0-.368-1.475A11.926,11.926,0,0,0,161.928,96H149.7a11.931,11.931,0,0,0-5.333,6.963,3.18,3.18,0,0,0-.365,1.475,3.339,3.339,0,0,0,2.568,3.21,5.024,5.024,0,0,0,0,8.768,3.326,3.326,0,0,0-2.572,3.21V136.5a3.376,3.376,0,0,0,3.375,3.375H164.25a3.376,3.376,0,0,0,3.375-3.375V119.625a3.327,3.327,0,0,0-2.572-3.213A5.036,5.036,0,0,0,167.625,112.032Z" transform="translate(-144 -96)" fill="#231e1f"/>
    </g>
  </g>
  <g id="Group_46133" data-name="Group 46133" transform="translate(5.063)">
    <g id="Group_46132" data-name="Group 46132" transform="translate(0)">
      <path id="Path_39532" data-name="Path 39532" d="M203.813,0H193.688A1.688,1.688,0,0,0,192,1.688V5.063a1.688,1.688,0,0,0,1.688,1.688h10.125A1.688,1.688,0,0,0,205.5,5.063V1.688A1.688,1.688,0,0,0,203.813,0Z" transform="translate(-192)" fill="#231e1f"/>
    </g>
  </g>
</svg>
