<svg id="wc" xmlns="http://www.w3.org/2000/svg" width="45.531" height="42.78" viewBox="0 0 45.531 42.78">
  <g id="Group_46135" data-name="Group 46135" transform="translate(3.412)">
    <g id="Group_46134" data-name="Group 46134">
      <path id="Path_39533" data-name="Path 39533" d="M45.432,15.468a7.062,7.062,0,1,0,7.062,7.062A7.07,7.07,0,0,0,45.432,15.468Z" transform="translate(-38.37 -15.468)" fill="#231e1f"/>
    </g>
  </g>
  <g id="Group_46137" data-name="Group 46137" transform="translate(0 17.439)">
    <g id="Group_46136" data-name="Group 46136">
      <path id="Path_39534" data-name="Path 39534" d="M20.715,212.165a1.361,1.361,0,0,0-1.128-.6H1.36A1.36,1.36,0,0,0,.1,213.435l9.114,22.62a1.36,1.36,0,0,0,2.524,0l9.114-22.621A1.36,1.36,0,0,0,20.715,212.165Z" transform="translate(0.001 -211.566)" fill="#231e1f"/>
    </g>
  </g>
  <g id="Group_46139" data-name="Group 46139" transform="translate(27.995)">
    <g id="Group_46138" data-name="Group 46138">
      <path id="Path_39535" data-name="Path 39535" d="M321.87,15.468a7.062,7.062,0,1,0,7.062,7.062A7.07,7.07,0,0,0,321.87,15.468Z" transform="translate(-314.808 -15.468)" fill="#231e1f"/>
    </g>
  </g>
  <g id="Group_46141" data-name="Group 46141" transform="translate(24.583 17.439)">
    <g id="Group_46140" data-name="Group 46140">
      <path id="Path_39536" data-name="Path 39536" d="M297.287,235.039l-9.114-22.621a1.36,1.36,0,0,0-2.524,0l-9.114,22.621a1.36,1.36,0,0,0,1.262,1.869h18.227a1.36,1.36,0,0,0,1.262-1.869Z" transform="translate(-276.437 -211.566)" fill="#231e1f"/>
    </g>
  </g>
</svg>
